<svg width="6.915063509461096in" height="6.915063509461096in" viewBox="0 0 6.915063509461096 6.915063509461096" xmlns="http://www.w3.org/2000/svg" xmlnsXlink="http://www.w3.org/1999/xlink">
        <g transform="translate(0 6.915063509461096)">
          <g transform="scale(1, -1)"><g fill="rgb(255,255,255)" stroke="none"><g transform="matrix(1,0,0,1,3.5000000000000004,3.4999999999999987)"><path class="fill" d="M 0 2.5 C 1.3807118745 2.5 2.5 1.3807118745 2.5 0 C 2.5 -1.3807118745 1.3807118745 -2.5 0 -2.5 C -1.3807118745 -2.5 -2.5 -1.3807118745 -2.5 0 C -2.5 1.3807118745 -1.3807118745 2.5 0 2.5"></path></g></g><g fill="none" stroke="rgb(0,0,0)"><g transform="matrix(1,0,0,1,3.499996732606532,3.5000373464782157)"><path class="outline" d="M 0.1226806640625 -2.496975985440341 C 0.1226806640625 -2.496975985440341 0.24505615234375 -2.4879594282670454 0.24505615234375 -2.4879594282670454 C 0.24505615234375 -2.4879594282670454 0.3668212890625 -2.4729503284801138 0.3668212890625 -2.4729503284801138 C 0.3668212890625 -2.4729503284801138 0.4877263849431818 -2.4519764293323862 0.4877263849431818 -2.4519764293323862 C 0.4877263849431818 -2.4519764293323862 0.6074385209517045 -2.4250654740767046 0.6074385209517045 -2.4250654740767046 C 0.6074385209517045 -2.4250654740767046 0.7257080078125 -2.3923561789772725 0.7257080078125 -2.3923561789772725 C 0.7257080078125 -2.3923561789772725 0.8422296697443181 -2.353848544034091 0.8422296697443181 -2.353848544034091 C 0.8422296697443181 -2.353848544034091 0.9566983309659091 -2.3097090287642046 0.9566983309659091 -2.3097090287642046 C 0.9566983309659091 -2.3097090287642046 1.0688920454545454 -2.2599653764204546 1.0688920454545454 -2.2599653764204546 C 1.0688920454545454 -2.2599653764204546 1.1785056374289773 -2.204811789772727 1.1785056374289773 -2.204811789772727 C 1.1785056374289773 -2.204811789772727 1.2852616743607954 -2.1443314985795454 1.2852616743607954 -2.1443314985795454 C 1.2852616743607954 -2.1443314985795454 1.3889382102272727 -2.0786632191051138 1.3889382102272727 -2.0786632191051138 C 1.3889382102272727 -2.0786632191051138 1.4892578125 -2.008028897372159 1.4892578125 -2.008028897372159 C 1.4892578125 -2.008028897372159 1.585970791903409 -1.9325395063920454 1.585970791903409 -1.9325395063920454 C 1.585970791903409 -1.9325395063920454 1.6789106889204546 -1.852389248934659 1.6789106889204546 -1.852389248934659 C 1.6789106889204546 -1.852389248934659 1.7677723277698862 -1.7677723277698862 1.7677723277698862 -1.7677723277698862 C 1.7677723277698862 -1.7677723277698862 1.852389248934659 -1.6789106889204546 1.852389248934659 -1.6789106889204546 C 1.852389248934659 -1.6789106889204546 1.9325395063920454 -1.585970791903409 1.9325395063920454 -1.585970791903409 C 1.9325395063920454 -1.585970791903409 2.008028897372159 -1.4892578125 2.008028897372159 -1.4892578125 C 2.008028897372159 -1.4892578125 2.0786632191051138 -1.3889382102272727 2.0786632191051138 -1.3889382102272727 C 2.0786632191051138 -1.3889382102272727 2.1443314985795454 -1.2852616743607954 2.1443314985795454 -1.2852616743607954 C 2.1443314985795454 -1.2852616743607954 2.204811789772727 -1.1785056374289773 2.204811789772727 -1.1785056374289773 C 2.204811789772727 -1.1785056374289773 2.2599653764204546 -1.0688920454545454 2.2599653764204546 -1.0688920454545454 C 2.2599653764204546 -1.0688920454545454 2.3097090287642046 -0.9566983309659091 2.3097090287642046 -0.9566983309659091 C 2.3097090287642046 -0.9566983309659091 2.353848544034091 -0.8422296697443181 2.353848544034091 -0.8422296697443181 C 2.353848544034091 -0.8422296697443181 2.3923561789772725 -0.7257080078125 2.3923561789772725 -0.7257080078125 C 2.3923561789772725 -0.7257080078125 2.4250654740767046 -0.6074385209517045 2.4250654740767046 -0.6074385209517045 C 2.4250654740767046 -0.6074385209517045 2.4519764293323862 -0.4877263849431818 2.4519764293323862 -0.4877263849431818 C 2.4519764293323862 -0.4877263849431818 2.4729503284801138 -0.3668212890625 2.4729503284801138 -0.3668212890625 C 2.4729503284801138 -0.3668212890625 2.4879594282670454 -0.24505615234375 2.4879594282670454 -0.24505615234375 C 2.4879594282670454 -0.24505615234375 2.496975985440341 -0.1226806640625 2.496975985440341 -0.1226806640625 C 2.496975985440341 -0.1226806640625 2.5 0 2.5 0 C 2.5 0 2.496975985440341 0.1226806640625 2.496975985440341 0.1226806640625 C 2.496975985440341 0.1226806640625 2.4879594282670454 0.24505615234375 2.4879594282670454 0.24505615234375 C 2.4879594282670454 0.24505615234375 2.4729503284801138 0.3668212890625 2.4729503284801138 0.3668212890625 C 2.4729503284801138 0.3668212890625 2.4519764293323862 0.4877263849431818 2.4519764293323862 0.4877263849431818 C 2.4519764293323862 0.4877263849431818 2.4250654740767046 0.6074385209517045 2.4250654740767046 0.6074385209517045 C 2.4250654740767046 0.6074385209517045 2.3923561789772725 0.7257080078125 2.3923561789772725 0.7257080078125 C 2.3923561789772725 0.7257080078125 2.353848544034091 0.8422296697443181 2.353848544034091 0.8422296697443181 C 2.353848544034091 0.8422296697443181 2.3097090287642046 0.9566983309659091 2.3097090287642046 0.9566983309659091 C 2.3097090287642046 0.9566983309659091 2.2599653764204546 1.0688920454545454 2.2599653764204546 1.0688920454545454 C 2.2599653764204546 1.0688920454545454 2.204811789772727 1.1785056374289773 2.204811789772727 1.1785056374289773 C 2.204811789772727 1.1785056374289773 2.1443314985795454 1.2852616743607954 2.1443314985795454 1.2852616743607954 C 2.1443314985795454 1.2852616743607954 2.0786632191051138 1.3889382102272727 2.0786632191051138 1.3889382102272727 C 2.0786632191051138 1.3889382102272727 2.008028897372159 1.4892578125 2.008028897372159 1.4892578125 C 2.008028897372159 1.4892578125 1.9325395063920454 1.585970791903409 1.9325395063920454 1.585970791903409 C 1.9325395063920454 1.585970791903409 1.852389248934659 1.6789106889204546 1.852389248934659 1.6789106889204546 C 1.852389248934659 1.6789106889204546 1.7677723277698862 1.7677723277698862 1.7677723277698862 1.7677723277698862 C 1.7677723277698862 1.7677723277698862 1.6789106889204546 1.852389248934659 1.6789106889204546 1.852389248934659 C 1.6789106889204546 1.852389248934659 1.585970791903409 1.9325395063920454 1.585970791903409 1.9325395063920454 C 1.585970791903409 1.9325395063920454 1.4892578125 2.008028897372159 1.4892578125 2.008028897372159 C 1.4892578125 2.008028897372159 1.3889382102272727 2.0786632191051138 1.3889382102272727 2.0786632191051138 C 1.3889382102272727 2.0786632191051138 1.2852616743607954 2.1443314985795454 1.2852616743607954 2.1443314985795454 C 1.2852616743607954 2.1443314985795454 1.1785056374289773 2.204811789772727 1.1785056374289773 2.204811789772727 C 1.1785056374289773 2.204811789772727 1.0688920454545454 2.2599653764204546 1.0688920454545454 2.2599653764204546 C 1.0688920454545454 2.2599653764204546 0.9566983309659091 2.3097090287642046 0.9566983309659091 2.3097090287642046 C 0.9566983309659091 2.3097090287642046 0.8422296697443181 2.353848544034091 0.8422296697443181 2.353848544034091 C 0.8422296697443181 2.353848544034091 0.7257080078125 2.3923561789772725 0.7257080078125 2.3923561789772725 C 0.7257080078125 2.3923561789772725 0.6074385209517045 2.4250654740767046 0.6074385209517045 2.4250654740767046 C 0.6074385209517045 2.4250654740767046 0.4877263849431818 2.4519764293323862 0.4877263849431818 2.4519764293323862 C 0.4877263849431818 2.4519764293323862 0.3668212890625 2.4729503284801138 0.3668212890625 2.4729503284801138 C 0.3668212890625 2.4729503284801138 0.24505615234375 2.4879594282670454 0.24505615234375 2.4879594282670454 C 0.24505615234375 2.4879594282670454 0.1226806640625 2.496975985440341 0.1226806640625 2.496975985440341 C 0.1226806640625 2.496975985440341 0 2.5 0 2.5 C 0 2.5 -0.1226806640625 2.496975985440341 -0.1226806640625 2.496975985440341 C -0.1226806640625 2.496975985440341 -0.24505615234375 2.4879594282670454 -0.24505615234375 2.4879594282670454 C -0.24505615234375 2.4879594282670454 -0.3668212890625 2.4729503284801138 -0.3668212890625 2.4729503284801138 C -0.3668212890625 2.4729503284801138 -0.4877263849431818 2.4519764293323862 -0.4877263849431818 2.4519764293323862 C -0.4877263849431818 2.4519764293323862 -0.6074385209517045 2.4250654740767046 -0.6074385209517045 2.4250654740767046 C -0.6074385209517045 2.4250654740767046 -0.7257080078125 2.3923561789772725 -0.7257080078125 2.3923561789772725 C -0.7257080078125 2.3923561789772725 -0.8422296697443181 2.353848544034091 -0.8422296697443181 2.353848544034091 C -0.8422296697443181 2.353848544034091 -0.9566983309659091 2.3097090287642046 -0.9566983309659091 2.3097090287642046 C -0.9566983309659091 2.3097090287642046 -1.0688920454545454 2.2599653764204546 -1.0688920454545454 2.2599653764204546 C -1.0688920454545454 2.2599653764204546 -1.1785056374289773 2.204811789772727 -1.1785056374289773 2.204811789772727 C -1.1785056374289773 2.204811789772727 -1.2852616743607954 2.1443314985795454 -1.2852616743607954 2.1443314985795454 C -1.2852616743607954 2.1443314985795454 -1.3889382102272727 2.0786632191051138 -1.3889382102272727 2.0786632191051138 C -1.3889382102272727 2.0786632191051138 -1.4892578125 2.008028897372159 -1.4892578125 2.008028897372159 C -1.4892578125 2.008028897372159 -1.585970791903409 1.9325395063920454 -1.585970791903409 1.9325395063920454 C -1.585970791903409 1.9325395063920454 -1.6789106889204546 1.852389248934659 -1.6789106889204546 1.852389248934659 C -1.6789106889204546 1.852389248934659 -1.7677723277698862 1.7677723277698862 -1.7677723277698862 1.7677723277698862 C -1.7677723277698862 1.7677723277698862 -1.852389248934659 1.6789106889204546 -1.852389248934659 1.6789106889204546 C -1.852389248934659 1.6789106889204546 -1.9325395063920454 1.585970791903409 -1.9325395063920454 1.585970791903409 C -1.9325395063920454 1.585970791903409 -2.008028897372159 1.4892578125 -2.008028897372159 1.4892578125 C -2.008028897372159 1.4892578125 -2.0786632191051138 1.3889382102272727 -2.0786632191051138 1.3889382102272727 C -2.0786632191051138 1.3889382102272727 -2.1443314985795454 1.2852616743607954 -2.1443314985795454 1.2852616743607954 C -2.1443314985795454 1.2852616743607954 -2.204811789772727 1.1785056374289773 -2.204811789772727 1.1785056374289773 C -2.204811789772727 1.1785056374289773 -2.2599653764204546 1.0688920454545454 -2.2599653764204546 1.0688920454545454 C -2.2599653764204546 1.0688920454545454 -2.3097090287642046 0.9566983309659091 -2.3097090287642046 0.9566983309659091 C -2.3097090287642046 0.9566983309659091 -2.353848544034091 0.8422296697443181 -2.353848544034091 0.8422296697443181 C -2.353848544034091 0.8422296697443181 -2.3923561789772725 0.7257080078125 -2.3923561789772725 0.7257080078125 C -2.3923561789772725 0.7257080078125 -2.4250654740767046 0.6074385209517045 -2.4250654740767046 0.6074385209517045 C -2.4250654740767046 0.6074385209517045 -2.4519764293323862 0.4877263849431818 -2.4519764293323862 0.4877263849431818 C -2.4519764293323862 0.4877263849431818 -2.4729503284801138 0.3668212890625 -2.4729503284801138 0.3668212890625 C -2.4729503284801138 0.3668212890625 -2.4879594282670454 0.24505615234375 -2.4879594282670454 0.24505615234375 C -2.4879594282670454 0.24505615234375 -2.496975985440341 0.1226806640625 -2.496975985440341 0.1226806640625 C -2.496975985440341 0.1226806640625 -2.5 0 -2.5 0 C -2.5 0 -2.496975985440341 -0.1226806640625 -2.496975985440341 -0.1226806640625 C -2.496975985440341 -0.1226806640625 -2.4879594282670454 -0.24505615234375 -2.4879594282670454 -0.24505615234375 C -2.4879594282670454 -0.24505615234375 -2.4729503284801138 -0.3668212890625 -2.4729503284801138 -0.3668212890625 C -2.4729503284801138 -0.3668212890625 -2.4519764293323862 -0.4877263849431818 -2.4519764293323862 -0.4877263849431818 C -2.4519764293323862 -0.4877263849431818 -2.4250654740767046 -0.6074385209517045 -2.4250654740767046 -0.6074385209517045 C -2.4250654740767046 -0.6074385209517045 -2.3923561789772725 -0.7257080078125 -2.3923561789772725 -0.7257080078125 C -2.3923561789772725 -0.7257080078125 -2.353848544034091 -0.8422296697443181 -2.353848544034091 -0.8422296697443181 C -2.353848544034091 -0.8422296697443181 -2.3097090287642046 -0.9566983309659091 -2.3097090287642046 -0.9566983309659091 C -2.3097090287642046 -0.9566983309659091 -2.2599653764204546 -1.0688920454545454 -2.2599653764204546 -1.0688920454545454 C -2.2599653764204546 -1.0688920454545454 -2.204811789772727 -1.1785056374289773 -2.204811789772727 -1.1785056374289773 C -2.204811789772727 -1.1785056374289773 -2.1443314985795454 -1.2852616743607954 -2.1443314985795454 -1.2852616743607954 C -2.1443314985795454 -1.2852616743607954 -2.0786632191051138 -1.3889382102272727 -2.0786632191051138 -1.3889382102272727 C -2.0786632191051138 -1.3889382102272727 -2.008028897372159 -1.4892578125 -2.008028897372159 -1.4892578125 C -2.008028897372159 -1.4892578125 -1.9325395063920454 -1.585970791903409 -1.9325395063920454 -1.585970791903409 C -1.9325395063920454 -1.585970791903409 -1.852389248934659 -1.6789106889204546 -1.852389248934659 -1.6789106889204546 C -1.852389248934659 -1.6789106889204546 -1.7677723277698862 -1.7677723277698862 -1.7677723277698862 -1.7677723277698862 C -1.7677723277698862 -1.7677723277698862 -1.6789106889204546 -1.852389248934659 -1.6789106889204546 -1.852389248934659 C -1.6789106889204546 -1.852389248934659 -1.585970791903409 -1.9325395063920454 -1.585970791903409 -1.9325395063920454 C -1.585970791903409 -1.9325395063920454 -1.4892578125 -2.008028897372159 -1.4892578125 -2.008028897372159 C -1.4892578125 -2.008028897372159 -1.3889382102272727 -2.0786632191051138 -1.3889382102272727 -2.0786632191051138 C -1.3889382102272727 -2.0786632191051138 -1.2852616743607954 -2.1443314985795454 -1.2852616743607954 -2.1443314985795454 C -1.2852616743607954 -2.1443314985795454 -1.1785056374289773 -2.204811789772727 -1.1785056374289773 -2.204811789772727 C -1.1785056374289773 -2.204811789772727 -1.0688920454545454 -2.2599653764204546 -1.0688920454545454 -2.2599653764204546 C -1.0688920454545454 -2.2599653764204546 -0.9566983309659091 -2.3097090287642046 -0.9566983309659091 -2.3097090287642046 C -0.9566983309659091 -2.3097090287642046 -0.8422296697443181 -2.353848544034091 -0.8422296697443181 -2.353848544034091 C -0.8422296697443181 -2.353848544034091 -0.7257080078125 -2.3923561789772725 -0.7257080078125 -2.3923561789772725 C -0.7257080078125 -2.3923561789772725 -0.6074385209517045 -2.4250654740767046 -0.6074385209517045 -2.4250654740767046 C -0.6074385209517045 -2.4250654740767046 -0.4877263849431818 -2.4519764293323862 -0.4877263849431818 -2.4519764293323862 C -0.4877263849431818 -2.4519764293323862 -0.3668212890625 -2.4729503284801138 -0.3668212890625 -2.4729503284801138 C -0.3668212890625 -2.4729503284801138 -0.24505615234375 -2.4879594282670454 -0.24505615234375 -2.4879594282670454 C -0.24505615234375 -2.4879594282670454 -0.1226806640625 -2.496975985440341 -0.1226806640625 -2.496975985440341 C -0.1226806640625 -2.496975985440341 0 -2.5 0 -2.5 C 0 -2.5 0.1226806640625 -2.496975985440341 0.1226806640625 -2.496975985440341" stroke-width="0.01"></path></g></g><g fill="rgb(142,142,142)" stroke="none"><g transform="matrix(0.8660254037844387,-0.49999999999999994,0.49999999999999994,0.8660254037844387,3.5,3.5)"><path class="fill" d="M 0.1226806640625 2.496978759765625 C 0.1226806640625 2.496978759765625 0 2.5 0 2.5 C 0 2.5 -0.1226806640625 2.496978759765625 -0.1226806640625 2.496978759765625 C -0.1226806640625 2.496978759765625 -0.143280029296875 2.495452880859375 -0.143280029296875 2.495452880859375 C -0.143280029296875 2.495452880859375 -0.085662841796875 2.497833251953125 -0.085662841796875 2.497833251953125 C -0.085662841796875 2.497833251953125 -0.019989013671875 2.499481201171875 -0.019989013671875 2.499481201171875 C -0.019989013671875 2.499481201171875 0.039093017578125 2.498992919921875 0.039093017578125 2.498992919921875 C 0.039093017578125 2.498992919921875 0.104766845703125 2.497344970703125 0.104766845703125 2.497344970703125 C 0.104766845703125 2.497344970703125 0.1640625 2.493927001953125 0.1640625 2.493927001953125 C 0.1640625 2.493927001953125 0.1226806640625 2.496978759765625 0.1226806640625 2.496978759765625 M -0.20269775390625 2.4910888671875 C -0.20269775390625 2.4910888671875 -0.24505615234375 2.48797607421875 -0.24505615234375 2.48797607421875 C -0.24505615234375 2.48797607421875 -0.265228271484375 2.4854736328125 -0.265228271484375 2.4854736328125 C -0.265228271484375 2.4854736328125 -0.20269775390625 2.4910888671875 -0.20269775390625 2.4910888671875 M 0.24505615234375 2.48797607421875 C 0.24505615234375 2.48797607421875 0.207183837890625 2.490753173828125 0.207183837890625 2.490753173828125 C 0.207183837890625 2.490753173828125 0.22540283203125 2.4893798828125 0.22540283203125 2.4893798828125 C 0.22540283203125 2.4893798828125 0.285552978515625 2.48297119140625 0.285552978515625 2.48297119140625 C 0.285552978515625 2.48297119140625 0.24505615234375 2.48797607421875 0.24505615234375 2.48797607421875 M -0.3275146484375 2.477783203125 C -0.3275146484375 2.477783203125 -0.3668212890625 2.472930908203125 -0.3668212890625 2.472930908203125 C -0.3668212890625 2.472930908203125 -0.386444091796875 2.469512939453125 -0.386444091796875 2.469512939453125 C -0.386444091796875 2.469512939453125 -0.3275146484375 2.477783203125 -0.3275146484375 2.477783203125 M 0.3668212890625 2.472930908203125 C 0.3668212890625 2.472930908203125 0.346160888671875 2.475494384765625 0.346160888671875 2.475494384765625 C 0.346160888671875 2.475494384765625 0.407379150390625 2.465911865234375 0.407379150390625 2.465911865234375 C 0.407379150390625 2.465911865234375 0.3668212890625 2.472930908203125 0.3668212890625 2.472930908203125 M -0.447540283203125 2.45892333984375 C -0.447540283203125 2.45892333984375 -0.48773193359375 2.45196533203125 -0.48773193359375 2.45196533203125 C -0.48773193359375 2.45196533203125 -0.507598876953125 2.447509765625 -0.507598876953125 2.447509765625 C -0.507598876953125 2.447509765625 -0.447540283203125 2.45892333984375 -0.447540283203125 2.45892333984375 M 0.48773193359375 2.45196533203125 C 0.48773193359375 2.45196533203125 0.4671630859375 2.455535888671875 0.4671630859375 2.455535888671875 C 0.4671630859375 2.455535888671875 0.527618408203125 2.4429931640625 0.527618408203125 2.4429931640625 C 0.527618408203125 2.4429931640625 0.48773193359375 2.45196533203125 0.48773193359375 2.45196533203125 M -0.5672607421875 2.434112548828125 C -0.5672607421875 2.434112548828125 -0.607452392578125 2.425079345703125 -0.607452392578125 2.425079345703125 C -0.607452392578125 2.425079345703125 -0.627777099609375 2.419464111328125 -0.627777099609375 2.419464111328125 C -0.627777099609375 2.419464111328125 -0.5672607421875 2.434112548828125 -0.5672607421875 2.434112548828125 M 0.607452392578125 2.425079345703125 C 0.607452392578125 2.425079345703125 0.58746337890625 2.4295654296875 0.58746337890625 2.4295654296875 C 0.58746337890625 2.4295654296875 0.64678955078125 2.4141845703125 0.64678955078125 2.4141845703125 C 0.64678955078125 2.4141845703125 0.607452392578125 2.425079345703125 0.607452392578125 2.425079345703125 M -0.684967041015625 2.40362548828125 C -0.684967041015625 2.40362548828125 -0.7257080078125 2.392364501953125 -0.7257080078125 2.392364501953125 C -0.7257080078125 2.392364501953125 -0.745391845703125 2.3858642578125 -0.745391845703125 2.3858642578125 C -0.745391845703125 2.3858642578125 -0.684967041015625 2.40362548828125 -0.684967041015625 2.40362548828125 M 0.7257080078125 2.392364501953125 C 0.7257080078125 2.392364501953125 0.705413818359375 2.397979736328125 0.705413818359375 2.397979736328125 C 0.705413818359375 2.397979736328125 0.764556884765625 2.3795166015625 0.764556884765625 2.3795166015625 C 0.764556884765625 2.3795166015625 0.7257080078125 2.392364501953125 0.7257080078125 2.392364501953125 M -0.8035888671875 2.36663818359375 C -0.8035888671875 2.36663818359375 -0.84222412109375 2.353851318359375 -0.84222412109375 2.353851318359375 C -0.84222412109375 2.353851318359375 -0.86114501953125 2.3465576171875 -0.86114501953125 2.3465576171875 C -0.86114501953125 2.3465576171875 -0.8035888671875 2.36663818359375 -0.8035888671875 2.36663818359375 M 0.84222412109375 2.353851318359375 C 0.84222412109375 2.353851318359375 0.823577880859375 2.360015869140625 0.823577880859375 2.360015869140625 C 0.823577880859375 2.360015869140625 0.87945556640625 2.3394775390625 0.87945556640625 2.3394775390625 C 0.87945556640625 2.3394775390625 0.84222412109375 2.353851318359375 0.84222412109375 2.353851318359375 M -0.919525146484375 2.32403564453125 C -0.919525146484375 2.32403564453125 -0.956695556640625 2.3096923828125 -0.956695556640625 2.3096923828125 C -0.956695556640625 2.3096923828125 -0.9744873046875 2.30181884765625 -0.9744873046875 2.30181884765625 C -0.9744873046875 2.30181884765625 -0.919525146484375 2.32403564453125 -0.919525146484375 2.32403564453125 M 0.956695556640625 2.3096923828125 C 0.956695556640625 2.3096923828125 0.93804931640625 2.31689453125 0.93804931640625 2.31689453125 C 0.93804931640625 2.31689453125 0.9930419921875 2.2935791015625 0.9930419921875 2.2935791015625 C 0.9930419921875 2.2935791015625 0.956695556640625 2.3096923828125 0.956695556640625 2.3096923828125 M -1.03271484375 2.2760009765625 C -1.03271484375 2.2760009765625 -1.068878173828125 2.259979248046875 -1.068878173828125 2.259979248046875 C -1.068878173828125 2.259979248046875 -1.0870361328125 2.2508544921875 -1.0870361328125 2.2508544921875 C -1.0870361328125 2.2508544921875 -1.03271484375 2.2760009765625 -1.03271484375 2.2760009765625 M 1.068878173828125 2.259979248046875 C 1.068878173828125 2.259979248046875 1.050506591796875 2.26812744140625 1.050506591796875 2.26812744140625 C 1.050506591796875 2.26812744140625 1.105712890625 2.241424560546875 1.105712890625 2.241424560546875 C 1.105712890625 2.241424560546875 1.068878173828125 2.259979248046875 1.068878173828125 2.259979248046875 M -1.141448974609375 2.22344970703125 C -1.141448974609375 2.22344970703125 -1.178497314453125 2.204803466796875 -1.178497314453125 2.204803466796875 C -1.178497314453125 2.204803466796875 -1.19683837890625 2.19439697265625 -1.19683837890625 2.19439697265625 C -1.19683837890625 2.19439697265625 -1.141448974609375 2.22344970703125 -1.141448974609375 2.22344970703125 M 1.178497314453125 2.204803466796875 C 1.178497314453125 2.204803466796875 1.160064697265625 2.214080810546875 1.160064697265625 2.214080810546875 C 1.160064697265625 2.214080810546875 1.2144775390625 2.184417724609375 1.2144775390625 2.184417724609375 C 1.2144775390625 2.184417724609375 1.178497314453125 2.204803466796875 1.178497314453125 2.204803466796875 M -1.249603271484375 2.164520263671875 C -1.249603271484375 2.164520263671875 -1.285247802734375 2.144317626953125 -1.285247802734375 2.144317626953125 C -1.285247802734375 2.144317626953125 -1.301910400390625 2.133758544921875 -1.301910400390625 2.133758544921875 C -1.301910400390625 2.133758544921875 -1.249603271484375 2.164520263671875 -1.249603271484375 2.164520263671875 M 1.285247802734375 2.144317626953125 C 1.285247802734375 2.144317626953125 1.267913818359375 2.154144287109375 1.267913818359375 2.154144287109375 C 1.267913818359375 2.154144287109375 1.319671630859375 2.122528076171875 1.319671630859375 2.122528076171875 C 1.319671630859375 2.122528076171875 1.285247802734375 2.144317626953125 1.285247802734375 2.144317626953125 M -1.354736328125 2.100311279296875 C -1.354736328125 2.100311279296875 -1.388916015625 2.07867431640625 -1.388916015625 2.07867431640625 C -1.388916015625 2.07867431640625 -1.405487060546875 2.0670166015625 -1.405487060546875 2.0670166015625 C -1.405487060546875 2.0670166015625 -1.354736328125 2.100311279296875 -1.354736328125 2.100311279296875 M 1.388916015625 2.07867431640625 C 1.388916015625 2.07867431640625 1.371551513671875 2.08966064453125 1.371551513671875 2.08966064453125 C 1.371551513671875 2.08966064453125 1.42120361328125 2.055938720703125 1.42120361328125 2.055938720703125 C 1.42120361328125 2.055938720703125 1.388916015625 2.07867431640625 1.388916015625 2.07867431640625 M 0.1226806640625 -2.496978759765625 C 0.1226806640625 -2.496978759765625 0.24505615234375 -2.48797607421875 0.24505615234375 -2.48797607421875 C 0.24505615234375 -2.48797607421875 0.3668212890625 -2.472930908203125 0.3668212890625 -2.472930908203125 C 0.3668212890625 -2.472930908203125 0.48773193359375 -2.45196533203125 0.48773193359375 -2.45196533203125 C 0.48773193359375 -2.45196533203125 0.607452392578125 -2.425079345703125 0.607452392578125 -2.425079345703125 C 0.607452392578125 -2.425079345703125 0.7257080078125 -2.392364501953125 0.7257080078125 -2.392364501953125 C 0.7257080078125 -2.392364501953125 0.84222412109375 -2.353851318359375 0.84222412109375 -2.353851318359375 C 0.84222412109375 -2.353851318359375 0.956695556640625 -2.3096923828125 0.956695556640625 -2.3096923828125 C 0.956695556640625 -2.3096923828125 1.068878173828125 -2.259979248046875 1.068878173828125 -2.259979248046875 C 1.068878173828125 -2.259979248046875 1.178497314453125 -2.204803466796875 1.178497314453125 -2.204803466796875 C 1.178497314453125 -2.204803466796875 1.285247802734375 -2.144317626953125 1.285247802734375 -2.144317626953125 C 1.285247802734375 -2.144317626953125 1.388916015625 -2.07867431640625 1.388916015625 -2.07867431640625 C 1.388916015625 -2.07867431640625 1.4892578125 -2.008026123046875 1.4892578125 -2.008026123046875 C 1.4892578125 -2.008026123046875 1.585968017578125 -1.932525634765625 1.585968017578125 -1.932525634765625 C 1.585968017578125 -1.932525634765625 1.67889404296875 -1.852386474609375 1.67889404296875 -1.852386474609375 C 1.67889404296875 -1.852386474609375 1.76776123046875 -1.76776123046875 1.76776123046875 -1.76776123046875 C 1.76776123046875 -1.76776123046875 1.852386474609375 -1.67889404296875 1.852386474609375 -1.67889404296875 C 1.852386474609375 -1.67889404296875 1.932525634765625 -1.585968017578125 1.932525634765625 -1.585968017578125 C 1.932525634765625 -1.585968017578125 2.008026123046875 -1.4892578125 2.008026123046875 -1.4892578125 C 2.008026123046875 -1.4892578125 2.07867431640625 -1.388916015625 2.07867431640625 -1.388916015625 C 2.07867431640625 -1.388916015625 2.144317626953125 -1.285247802734375 2.144317626953125 -1.285247802734375 C 2.144317626953125 -1.285247802734375 2.204803466796875 -1.178497314453125 2.204803466796875 -1.178497314453125 C 2.204803466796875 -1.178497314453125 2.259979248046875 -1.068878173828125 2.259979248046875 -1.068878173828125 C 2.259979248046875 -1.068878173828125 2.3096923828125 -0.956695556640625 2.3096923828125 -0.956695556640625 C 2.3096923828125 -0.956695556640625 2.353851318359375 -0.84222412109375 2.353851318359375 -0.84222412109375 C 2.353851318359375 -0.84222412109375 2.392364501953125 -0.7257080078125 2.392364501953125 -0.7257080078125 C 2.392364501953125 -0.7257080078125 2.425079345703125 -0.607452392578125 2.425079345703125 -0.607452392578125 C 2.425079345703125 -0.607452392578125 2.45196533203125 -0.48773193359375 2.45196533203125 -0.48773193359375 C 2.45196533203125 -0.48773193359375 2.472930908203125 -0.3668212890625 2.472930908203125 -0.3668212890625 C 2.472930908203125 -0.3668212890625 2.48797607421875 -0.24505615234375 2.48797607421875 -0.24505615234375 C 2.48797607421875 -0.24505615234375 2.496978759765625 -0.1226806640625 2.496978759765625 -0.1226806640625 C 2.496978759765625 -0.1226806640625 2.5 0 2.5 0 C 2.5 0 2.496978759765625 0.1226806640625 2.496978759765625 0.1226806640625 C 2.496978759765625 0.1226806640625 2.48797607421875 0.24505615234375 2.48797607421875 0.24505615234375 C 2.48797607421875 0.24505615234375 2.472930908203125 0.3668212890625 2.472930908203125 0.3668212890625 C 2.472930908203125 0.3668212890625 2.45196533203125 0.48773193359375 2.45196533203125 0.48773193359375 C 2.45196533203125 0.48773193359375 2.425079345703125 0.607452392578125 2.425079345703125 0.607452392578125 C 2.425079345703125 0.607452392578125 2.4053955078125 0.6785888671875 2.4053955078125 0.6785888671875 C 2.4053955078125 0.6785888671875 2.42388916015625 0.611663818359375 2.42388916015625 0.611663818359375 C 2.42388916015625 0.611663818359375 -0.116455078125 0.6116943359375 -0.116455078125 0.6116943359375 C -0.116455078125 0.6116943359375 -0.11474609375 0.6785888671875 -0.11474609375 0.6785888671875 C -0.11474609375 0.6785888671875 -0.109710693359375 0.744598388671875 -0.109710693359375 0.744598388671875 C -0.109710693359375 0.744598388671875 -0.101470947265625 0.809661865234375 -0.101470947265625 0.809661865234375 C -0.101470947265625 0.809661865234375 -0.09002685546875 0.873687744140625 -0.09002685546875 0.873687744140625 C -0.09002685546875 0.873687744140625 -0.07550048828125 0.93658447265625 -0.07550048828125 0.93658447265625 C -0.07550048828125 0.93658447265625 -0.058013916015625 0.998260498046875 -0.058013916015625 0.998260498046875 C -0.058013916015625 0.998260498046875 -0.03753662109375 1.05865478515625 -0.03753662109375 1.05865478515625 C -0.03753662109375 1.05865478515625 -0.0142822265625 1.117706298828125 -0.0142822265625 1.117706298828125 C -0.0142822265625 1.117706298828125 0.011749267578125 1.17529296875 0.011749267578125 1.17529296875 C 0.011749267578125 1.17529296875 0.040435791015625 1.231353759765625 0.040435791015625 1.231353759765625 C 0.040435791015625 1.231353759765625 0.071746826171875 1.2857666015625 0.071746826171875 1.2857666015625 C 0.071746826171875 1.2857666015625 0.1055908203125 1.338531494140625 0.1055908203125 1.338531494140625 C 0.1055908203125 1.338531494140625 0.141815185546875 1.389495849609375 0.141815185546875 1.389495849609375 C 0.141815185546875 1.389495849609375 0.180419921875 1.4385986328125 0.180419921875 1.4385986328125 C 0.180419921875 1.4385986328125 0.22125244140625 1.48577880859375 0.22125244140625 1.48577880859375 C 0.22125244140625 1.48577880859375 0.264312744140625 1.53094482421875 0.264312744140625 1.53094482421875 C 0.264312744140625 1.53094482421875 0.3094482421875 1.573974609375 0.3094482421875 1.573974609375 C 0.3094482421875 1.573974609375 0.356658935546875 1.61480712890625 0.356658935546875 1.61480712890625 C 0.356658935546875 1.61480712890625 0.40576171875 1.653411865234375 0.40576171875 1.653411865234375 C 0.40576171875 1.653411865234375 0.45672607421875 1.689666748046875 0.45672607421875 1.689666748046875 C 0.45672607421875 1.689666748046875 0.50946044921875 1.723480224609375 0.50946044921875 1.723480224609375 C 0.50946044921875 1.723480224609375 0.56390380859375 1.7547607421875 0.56390380859375 1.7547607421875 C 0.56390380859375 1.7547607421875 0.61993408203125 1.783477783203125 0.61993408203125 1.783477783203125 C 0.61993408203125 1.783477783203125 0.67755126953125 1.80950927734375 0.67755126953125 1.80950927734375 C 0.67755126953125 1.80950927734375 0.736572265625 1.832794189453125 0.736572265625 1.832794189453125 C 0.736572265625 1.832794189453125 0.796966552734375 1.853240966796875 0.796966552734375 1.853240966796875 C 0.796966552734375 1.853240966796875 0.858673095703125 1.870758056640625 0.858673095703125 1.870758056640625 C 0.858673095703125 1.870758056640625 0.92156982421875 1.885284423828125 0.92156982421875 1.885284423828125 C 0.92156982421875 1.885284423828125 0.985565185546875 1.896697998046875 0.985565185546875 1.896697998046875 C 0.985565185546875 1.896697998046875 1.050628662109375 1.90496826171875 1.050628662109375 1.90496826171875 C 1.050628662109375 1.90496826171875 1.11663818359375 1.90997314453125 1.11663818359375 1.90997314453125 C 1.11663818359375 1.90997314453125 1.18353271484375 1.91168212890625 1.18353271484375 1.91168212890625 C 1.18353271484375 1.91168212890625 1.250457763671875 1.910003662109375 1.250457763671875 1.910003662109375 C 1.250457763671875 1.910003662109375 1.316497802734375 1.90496826171875 1.316497802734375 1.90496826171875 C 1.316497802734375 1.90496826171875 1.38153076171875 1.896697998046875 1.38153076171875 1.896697998046875 C 1.38153076171875 1.896697998046875 1.445556640625 1.885284423828125 1.445556640625 1.885284423828125 C 1.445556640625 1.885284423828125 1.5084228515625 1.8707275390625 1.5084228515625 1.8707275390625 C 1.5084228515625 1.8707275390625 1.57012939453125 1.853240966796875 1.57012939453125 1.853240966796875 C 1.57012939453125 1.853240966796875 1.63055419921875 1.832794189453125 1.63055419921875 1.832794189453125 C 1.63055419921875 1.832794189453125 1.689544677734375 1.80950927734375 1.689544677734375 1.80950927734375 C 1.689544677734375 1.80950927734375 1.747161865234375 1.78350830078125 1.747161865234375 1.78350830078125 C 1.747161865234375 1.78350830078125 1.7559814453125 1.77899169921875 1.7559814453125 1.77899169921875 C 1.7559814453125 1.77899169921875 1.67889404296875 1.852386474609375 1.67889404296875 1.852386474609375 C 1.67889404296875 1.852386474609375 1.6639404296875 1.86529541015625 1.6639404296875 1.86529541015625 C 1.6639404296875 1.86529541015625 1.70465087890625 1.8277587890625 1.70465087890625 1.8277587890625 C 1.70465087890625 1.8277587890625 1.69036865234375 1.835968017578125 1.69036865234375 1.835968017578125 C 1.69036865234375 1.835968017578125 1.600341796875 1.882080078125 1.600341796875 1.882080078125 C 1.600341796875 1.882080078125 1.507843017578125 1.92388916015625 1.507843017578125 1.92388916015625 C 1.507843017578125 1.92388916015625 1.41302490234375 1.961273193359375 1.41302490234375 1.961273193359375 C 1.41302490234375 1.961273193359375 1.316009521484375 1.994110107421875 1.316009521484375 1.994110107421875 C 1.316009521484375 1.994110107421875 1.2169189453125 2.022247314453125 1.2169189453125 2.022247314453125 C 1.2169189453125 2.022247314453125 1.11590576171875 2.045562744140625 1.11590576171875 2.045562744140625 C 1.11590576171875 2.045562744140625 1.013092041015625 2.06390380859375 1.013092041015625 2.06390380859375 C 1.013092041015625 2.06390380859375 0.908599853515625 2.077178955078125 0.908599853515625 2.077178955078125 C 0.908599853515625 2.077178955078125 0.80255126953125 2.08526611328125 0.80255126953125 2.08526611328125 C 0.80255126953125 2.08526611328125 0.695098876953125 2.087982177734375 0.695098876953125 2.087982177734375 C 0.695098876953125 2.087982177734375 0.587677001953125 2.08526611328125 0.587677001953125 2.08526611328125 C 0.587677001953125 2.08526611328125 0.48162841796875 2.077178955078125 0.48162841796875 2.077178955078125 C 0.48162841796875 2.077178955078125 0.37713623046875 2.06390380859375 0.37713623046875 2.06390380859375 C 0.37713623046875 2.06390380859375 0.274322509765625 2.045562744140625 0.274322509765625 2.045562744140625 C 0.274322509765625 2.045562744140625 0.173309326171875 2.022247314453125 0.173309326171875 2.022247314453125 C 0.173309326171875 2.022247314453125 0.07421875 1.994110107421875 0.07421875 1.994110107421875 C 0.07421875 1.994110107421875 -0.022796630859375 1.961273193359375 -0.022796630859375 1.961273193359375 C -0.022796630859375 1.961273193359375 -0.11761474609375 1.92388916015625 -0.11761474609375 1.92388916015625 C -0.11761474609375 1.92388916015625 -0.210113525390625 1.882080078125 -0.210113525390625 1.882080078125 C -0.210113525390625 1.882080078125 -0.300140380859375 1.835968017578125 -0.300140380859375 1.835968017578125 C -0.300140380859375 1.835968017578125 -0.3875732421875 1.785675048828125 -0.3875732421875 1.785675048828125 C -0.3875732421875 1.785675048828125 -0.4722900390625 1.73138427734375 -0.4722900390625 1.73138427734375 C -0.4722900390625 1.73138427734375 -0.554168701171875 1.67315673828125 -0.554168701171875 1.67315673828125 C -0.554168701171875 1.67315673828125 -0.633026123046875 1.611175537109375 -0.633026123046875 1.611175537109375 C -0.633026123046875 1.611175537109375 -0.70880126953125 1.545562744140625 -0.70880126953125 1.545562744140625 C -0.70880126953125 1.545562744140625 -0.78131103515625 1.476409912109375 -0.78131103515625 1.476409912109375 C -0.78131103515625 1.476409912109375 -0.850433349609375 1.403900146484375 -0.850433349609375 1.403900146484375 C -0.850433349609375 1.403900146484375 -0.91607666015625 1.328155517578125 -0.91607666015625 1.328155517578125 C -0.91607666015625 1.328155517578125 -0.978057861328125 1.249267578125 -0.978057861328125 1.249267578125 C -0.978057861328125 1.249267578125 -1.0362548828125 1.167388916015625 -1.0362548828125 1.167388916015625 C -1.0362548828125 1.167388916015625 -1.090576171875 1.08270263671875 -1.090576171875 1.08270263671875 C -1.090576171875 1.08270263671875 -1.140838623046875 0.9952392578125 -1.140838623046875 0.9952392578125 C -1.140838623046875 0.9952392578125 -1.18695068359375 0.90521240234375 -1.18695068359375 0.90521240234375 C -1.18695068359375 0.90521240234375 -1.228790283203125 0.812744140625 -1.228790283203125 0.812744140625 C -1.228790283203125 0.812744140625 -1.26617431640625 0.717926025390625 -1.26617431640625 0.717926025390625 C -1.26617431640625 0.717926025390625 -1.298980712890625 0.62091064453125 -1.298980712890625 0.62091064453125 C -1.298980712890625 0.62091064453125 -1.327117919921875 0.521820068359375 -1.327117919921875 0.521820068359375 C -1.327117919921875 0.521820068359375 -1.350433349609375 0.420806884765625 -1.350433349609375 0.420806884765625 C -1.350433349609375 0.420806884765625 -1.368804931640625 0.317962646484375 -1.368804931640625 0.317962646484375 C -1.368804931640625 0.317962646484375 -1.382080078125 0.213470458984375 -1.382080078125 0.213470458984375 C -1.382080078125 0.213470458984375 -1.39013671875 0.107452392578125 -1.39013671875 0.107452392578125 C -1.39013671875 0.107452392578125 -1.392852783203125 0 -1.392852783203125 0 C -1.392852783203125 0 1.392852783203125 0 1.392852783203125 0 C 1.392852783203125 0 1.39013671875 -0.107452392578125 1.39013671875 -0.107452392578125 C 1.39013671875 -0.107452392578125 1.382080078125 -0.213470458984375 1.382080078125 -0.213470458984375 C 1.382080078125 -0.213470458984375 1.368804931640625 -0.317962646484375 1.368804931640625 -0.317962646484375 C 1.368804931640625 -0.317962646484375 1.350433349609375 -0.420806884765625 1.350433349609375 -0.420806884765625 C 1.350433349609375 -0.420806884765625 1.327117919921875 -0.521820068359375 1.327117919921875 -0.521820068359375 C 1.327117919921875 -0.521820068359375 1.298980712890625 -0.62091064453125 1.298980712890625 -0.62091064453125 C 1.298980712890625 -0.62091064453125 1.26617431640625 -0.717926025390625 1.26617431640625 -0.717926025390625 C 1.26617431640625 -0.717926025390625 1.228790283203125 -0.812744140625 1.228790283203125 -0.812744140625 C 1.228790283203125 -0.812744140625 1.18695068359375 -0.90521240234375 1.18695068359375 -0.90521240234375 C 1.18695068359375 -0.90521240234375 1.140838623046875 -0.9952392578125 1.140838623046875 -0.9952392578125 C 1.140838623046875 -0.9952392578125 1.090576171875 -1.08270263671875 1.090576171875 -1.08270263671875 C 1.090576171875 -1.08270263671875 1.0362548828125 -1.167388916015625 1.0362548828125 -1.167388916015625 C 1.0362548828125 -1.167388916015625 0.978057861328125 -1.249267578125 0.978057861328125 -1.249267578125 C 0.978057861328125 -1.249267578125 0.91607666015625 -1.328155517578125 0.91607666015625 -1.328155517578125 C 0.91607666015625 -1.328155517578125 0.850433349609375 -1.403900146484375 0.850433349609375 -1.403900146484375 C 0.850433349609375 -1.403900146484375 0.78131103515625 -1.476409912109375 0.78131103515625 -1.476409912109375 C 0.78131103515625 -1.476409912109375 0.70880126953125 -1.545562744140625 0.70880126953125 -1.545562744140625 C 0.70880126953125 -1.545562744140625 0.633026123046875 -1.611175537109375 0.633026123046875 -1.611175537109375 C 0.633026123046875 -1.611175537109375 0.554168701171875 -1.67315673828125 0.554168701171875 -1.67315673828125 C 0.554168701171875 -1.67315673828125 0.4722900390625 -1.73138427734375 0.4722900390625 -1.73138427734375 C 0.4722900390625 -1.73138427734375 0.3875732421875 -1.785675048828125 0.3875732421875 -1.785675048828125 C 0.3875732421875 -1.785675048828125 0.300140380859375 -1.835968017578125 0.300140380859375 -1.835968017578125 C 0.300140380859375 -1.835968017578125 0.210113525390625 -1.882080078125 0.210113525390625 -1.882080078125 C 0.210113525390625 -1.882080078125 0.11761474609375 -1.92388916015625 0.11761474609375 -1.92388916015625 C 0.11761474609375 -1.92388916015625 0.022796630859375 -1.961273193359375 0.022796630859375 -1.961273193359375 C 0.022796630859375 -1.961273193359375 -0.07421875 -1.994110107421875 -0.07421875 -1.994110107421875 C -0.07421875 -1.994110107421875 -0.173309326171875 -2.022247314453125 -0.173309326171875 -2.022247314453125 C -0.173309326171875 -2.022247314453125 -0.274322509765625 -2.045562744140625 -0.274322509765625 -2.045562744140625 C -0.274322509765625 -2.045562744140625 -0.37713623046875 -2.06390380859375 -0.37713623046875 -2.06390380859375 C -0.37713623046875 -2.06390380859375 -0.48162841796875 -2.077178955078125 -0.48162841796875 -2.077178955078125 C -0.48162841796875 -2.077178955078125 -0.587677001953125 -2.08526611328125 -0.587677001953125 -2.08526611328125 C -0.587677001953125 -2.08526611328125 -0.695098876953125 -2.087982177734375 -0.695098876953125 -2.087982177734375 C -0.695098876953125 -2.087982177734375 -0.80255126953125 -2.08526611328125 -0.80255126953125 -2.08526611328125 C -0.80255126953125 -2.08526611328125 -0.908599853515625 -2.077178955078125 -0.908599853515625 -2.077178955078125 C -0.908599853515625 -2.077178955078125 -1.013092041015625 -2.06390380859375 -1.013092041015625 -2.06390380859375 C -1.013092041015625 -2.06390380859375 -1.11590576171875 -2.045562744140625 -1.11590576171875 -2.045562744140625 C -1.11590576171875 -2.045562744140625 -1.2169189453125 -2.022247314453125 -1.2169189453125 -2.022247314453125 C -1.2169189453125 -2.022247314453125 -1.316009521484375 -1.994110107421875 -1.316009521484375 -1.994110107421875 C -1.316009521484375 -1.994110107421875 -1.41302490234375 -1.961273193359375 -1.41302490234375 -1.961273193359375 C -1.41302490234375 -1.961273193359375 -1.507843017578125 -1.92388916015625 -1.507843017578125 -1.92388916015625 C -1.507843017578125 -1.92388916015625 -1.600341796875 -1.882080078125 -1.600341796875 -1.882080078125 C -1.600341796875 -1.882080078125 -1.69036865234375 -1.835968017578125 -1.69036865234375 -1.835968017578125 C -1.69036865234375 -1.835968017578125 -1.70465087890625 -1.8277587890625 -1.70465087890625 -1.8277587890625 C -1.70465087890625 -1.8277587890625 -1.70794677734375 -1.82470703125 -1.70794677734375 -1.82470703125 C -1.70794677734375 -1.82470703125 -1.67889404296875 -1.852386474609375 -1.67889404296875 -1.852386474609375 C -1.67889404296875 -1.852386474609375 -1.585968017578125 -1.932525634765625 -1.585968017578125 -1.932525634765625 C -1.585968017578125 -1.932525634765625 -1.4892578125 -2.008026123046875 -1.4892578125 -2.008026123046875 C -1.4892578125 -2.008026123046875 -1.388916015625 -2.07867431640625 -1.388916015625 -2.07867431640625 C -1.388916015625 -2.07867431640625 -1.285247802734375 -2.144317626953125 -1.285247802734375 -2.144317626953125 C -1.285247802734375 -2.144317626953125 -1.178497314453125 -2.204803466796875 -1.178497314453125 -2.204803466796875 C -1.178497314453125 -2.204803466796875 -1.068878173828125 -2.259979248046875 -1.068878173828125 -2.259979248046875 C -1.068878173828125 -2.259979248046875 -0.956695556640625 -2.3096923828125 -0.956695556640625 -2.3096923828125 C -0.956695556640625 -2.3096923828125 -0.84222412109375 -2.353851318359375 -0.84222412109375 -2.353851318359375 C -0.84222412109375 -2.353851318359375 -0.7257080078125 -2.392364501953125 -0.7257080078125 -2.392364501953125 C -0.7257080078125 -2.392364501953125 -0.607452392578125 -2.425079345703125 -0.607452392578125 -2.425079345703125 C -0.607452392578125 -2.425079345703125 -0.48773193359375 -2.45196533203125 -0.48773193359375 -2.45196533203125 C -0.48773193359375 -2.45196533203125 -0.3668212890625 -2.472930908203125 -0.3668212890625 -2.472930908203125 C -0.3668212890625 -2.472930908203125 -0.24505615234375 -2.48797607421875 -0.24505615234375 -2.48797607421875 C -0.24505615234375 -2.48797607421875 -0.1226806640625 -2.496978759765625 -0.1226806640625 -2.496978759765625 C -0.1226806640625 -2.496978759765625 0 -2.5 0 -2.5 C 0 -2.5 0.1226806640625 -2.496978759765625 0.1226806640625 -2.496978759765625 M -1.455718994140625 2.0316162109375 C -1.455718994140625 2.0316162109375 -1.4892578125 2.008026123046875 -1.4892578125 2.008026123046875 C -1.4892578125 2.008026123046875 -1.505645751953125 1.9952392578125 -1.505645751953125 1.9952392578125 C -1.505645751953125 1.9952392578125 -1.455718994140625 2.0316162109375 -1.455718994140625 2.0316162109375 M 1.4892578125 2.008026123046875 C 1.4892578125 2.008026123046875 1.47283935546875 2.01959228515625 1.47283935546875 2.01959228515625 C 1.47283935546875 2.01959228515625 1.521453857421875 1.982879638671875 1.521453857421875 1.982879638671875 C 1.521453857421875 1.982879638671875 1.4892578125 2.008026123046875 1.4892578125 2.008026123046875 M -1.553863525390625 1.95758056640625 C -1.553863525390625 1.95758056640625 -1.585968017578125 1.932525634765625 -1.585968017578125 1.932525634765625 C -1.585968017578125 1.932525634765625 -1.601531982421875 1.919097900390625 -1.601531982421875 1.919097900390625 C -1.601531982421875 1.919097900390625 -1.553863525390625 1.95758056640625 -1.553863525390625 1.95758056640625 M 1.585968017578125 1.932525634765625 C 1.585968017578125 1.932525634765625 1.56964111328125 1.945281982421875 1.56964111328125 1.945281982421875 C 1.56964111328125 1.945281982421875 1.6163330078125 1.906341552734375 1.6163330078125 1.906341552734375 C 1.6163330078125 1.906341552734375 1.585968017578125 1.932525634765625 1.585968017578125 1.932525634765625 M -1.6475830078125 1.87939453125 C -1.6475830078125 1.87939453125 -1.67889404296875 1.852386474609375 -1.67889404296875 1.852386474609375 C -1.67889404296875 1.852386474609375 -1.693817138671875 1.838165283203125 -1.693817138671875 1.838165283203125 C -1.693817138671875 1.838165283203125 -1.6475830078125 1.87939453125 -1.6475830078125 1.87939453125 M -1.738677978515625 1.795440673828125 C -1.738677978515625 1.795440673828125 -1.76776123046875 1.76776123046875 -1.76776123046875 1.76776123046875 C -1.76776123046875 1.76776123046875 -1.781951904296875 1.75286865234375 -1.781951904296875 1.75286865234375 C -1.781951904296875 1.75286865234375 -1.738677978515625 1.795440673828125 -1.738677978515625 1.795440673828125 M -1.82421875 1.70849609375 C -1.82421875 1.70849609375 -1.852386474609375 1.67889404296875 -1.852386474609375 1.67889404296875 C -1.852386474609375 1.67889404296875 -1.865478515625 1.663726806640625 -1.865478515625 1.663726806640625 C -1.865478515625 1.663726806640625 -1.82421875 1.70849609375 -1.82421875 1.70849609375 M -1.906341552734375 1.6163330078125 C -1.906341552734375 1.6163330078125 -1.932525634765625 1.585968017578125 -1.932525634765625 1.585968017578125 C -1.932525634765625 1.585968017578125 -1.94537353515625 1.56951904296875 -1.94537353515625 1.56951904296875 C -1.94537353515625 1.56951904296875 -1.906341552734375 1.6163330078125 -1.906341552734375 1.6163330078125 M -1.982879638671875 1.521453857421875 C -1.982879638671875 1.521453857421875 -2.008026123046875 1.4892578125 -2.008026123046875 1.4892578125 C -2.008026123046875 1.4892578125 -2.01959228515625 1.47283935546875 -2.01959228515625 1.47283935546875 C -2.01959228515625 1.47283935546875 -1.982879638671875 1.521453857421875 -1.982879638671875 1.521453857421875 M -2.055938720703125 1.42120361328125 C -2.055938720703125 1.42120361328125 -2.07867431640625 1.388916015625 -2.07867431640625 1.388916015625 C -2.07867431640625 1.388916015625 -2.08966064453125 1.371551513671875 -2.08966064453125 1.371551513671875 C -2.08966064453125 1.371551513671875 -2.055938720703125 1.42120361328125 -2.055938720703125 1.42120361328125 M -2.122528076171875 1.319671630859375 C -2.122528076171875 1.319671630859375 -2.144317626953125 1.285247802734375 -2.144317626953125 1.285247802734375 C -2.144317626953125 1.285247802734375 -2.154144287109375 1.267913818359375 -2.154144287109375 1.267913818359375 C -2.154144287109375 1.267913818359375 -2.122528076171875 1.319671630859375 -2.122528076171875 1.319671630859375 M -2.184417724609375 1.2144775390625 C -2.184417724609375 1.2144775390625 -2.204803466796875 1.178497314453125 -2.204803466796875 1.178497314453125 C -2.204803466796875 1.178497314453125 -2.214080810546875 1.160064697265625 -2.214080810546875 1.160064697265625 C -2.214080810546875 1.160064697265625 -2.184417724609375 1.2144775390625 -2.184417724609375 1.2144775390625 M -2.241424560546875 1.105712890625 C -2.241424560546875 1.105712890625 -2.259979248046875 1.068878173828125 -2.259979248046875 1.068878173828125 C -2.259979248046875 1.068878173828125 -2.26812744140625 1.050506591796875 -2.26812744140625 1.050506591796875 C -2.26812744140625 1.050506591796875 -2.241424560546875 1.105712890625 -2.241424560546875 1.105712890625 M -2.2935791015625 0.9930419921875 C -2.2935791015625 0.9930419921875 -2.3096923828125 0.956695556640625 -2.3096923828125 0.956695556640625 C -2.3096923828125 0.956695556640625 -2.31689453125 0.93804931640625 -2.31689453125 0.93804931640625 C -2.31689453125 0.93804931640625 -2.2935791015625 0.9930419921875 -2.2935791015625 0.9930419921875 M -2.3394775390625 0.87945556640625 C -2.3394775390625 0.87945556640625 -2.353851318359375 0.84222412109375 -2.353851318359375 0.84222412109375 C -2.353851318359375 0.84222412109375 -2.360015869140625 0.823577880859375 -2.360015869140625 0.823577880859375 C -2.360015869140625 0.823577880859375 -2.3394775390625 0.87945556640625 -2.3394775390625 0.87945556640625 M -2.3795166015625 0.764556884765625 C -2.3795166015625 0.764556884765625 -2.392364501953125 0.7257080078125 -2.392364501953125 0.7257080078125 C -2.392364501953125 0.7257080078125 -2.397979736328125 0.705413818359375 -2.397979736328125 0.705413818359375 C -2.397979736328125 0.705413818359375 -2.3795166015625 0.764556884765625 -2.3795166015625 0.764556884765625 M -2.4141845703125 0.64678955078125 C -2.4141845703125 0.64678955078125 -2.425079345703125 0.607452392578125 -2.425079345703125 0.607452392578125 C -2.425079345703125 0.607452392578125 -2.4295654296875 0.58746337890625 -2.4295654296875 0.58746337890625 C -2.4295654296875 0.58746337890625 -2.4141845703125 0.64678955078125 -2.4141845703125 0.64678955078125 M -2.4429931640625 0.527618408203125 C -2.4429931640625 0.527618408203125 -2.45196533203125 0.48773193359375 -2.45196533203125 0.48773193359375 C -2.45196533203125 0.48773193359375 -2.455535888671875 0.4671630859375 -2.455535888671875 0.4671630859375 C -2.455535888671875 0.4671630859375 -2.4429931640625 0.527618408203125 -2.4429931640625 0.527618408203125 M -2.4659423828125 0.40716552734375 C -2.4659423828125 0.40716552734375 -2.472930908203125 0.3668212890625 -2.472930908203125 0.3668212890625 C -2.472930908203125 0.3668212890625 -2.475433349609375 0.3465576171875 -2.475433349609375 0.3465576171875 C -2.475433349609375 0.3465576171875 -2.4659423828125 0.40716552734375 -2.4659423828125 0.40716552734375 M -2.4893798828125 0.22540283203125 C -2.4893798828125 0.22540283203125 -2.48297119140625 0.285552978515625 -2.48297119140625 0.285552978515625 C -2.48297119140625 0.285552978515625 -2.48797607421875 0.24505615234375 -2.48797607421875 0.24505615234375 C -2.48797607421875 0.24505615234375 -2.490753173828125 0.207183837890625 -2.490753173828125 0.207183837890625 C -2.490753173828125 0.207183837890625 -2.4893798828125 0.22540283203125 -2.4893798828125 0.22540283203125 M -2.498992919921875 0.039093017578125 C -2.498992919921875 0.039093017578125 -2.497344970703125 0.104766845703125 -2.497344970703125 0.104766845703125 C -2.497344970703125 0.104766845703125 -2.493927001953125 0.1640625 -2.493927001953125 0.1640625 C -2.493927001953125 0.1640625 -2.496978759765625 0.1226806640625 -2.496978759765625 0.1226806640625 C -2.496978759765625 0.1226806640625 -2.5 0 -2.5 0 C -2.5 0 -2.499481201171875 -0.02056884765625 -2.499481201171875 -0.02056884765625 C -2.499481201171875 -0.02056884765625 -2.498992919921875 0.039093017578125 -2.498992919921875 0.039093017578125 M -2.49798583984375 -0.08172607421875 C -2.49798583984375 -0.08172607421875 -2.496978759765625 -0.1226806640625 -2.496978759765625 -0.1226806640625 C -2.496978759765625 -0.1226806640625 -2.495452880859375 -0.143402099609375 -2.495452880859375 -0.143402099609375 C -2.495452880859375 -0.143402099609375 -2.49798583984375 -0.08172607421875 -2.49798583984375 -0.08172607421875 M -2.49102783203125 -0.203582763671875 C -2.49102783203125 -0.203582763671875 -2.48797607421875 -0.24505615234375 -2.48797607421875 -0.24505615234375 C -2.48797607421875 -0.24505615234375 -2.485504150390625 -0.265167236328125 -2.485504150390625 -0.265167236328125 C -2.485504150390625 -0.265167236328125 -2.49102783203125 -0.203582763671875 -2.49102783203125 -0.203582763671875 M -2.477783203125 -0.32745361328125 C -2.477783203125 -0.32745361328125 -2.472930908203125 -0.3668212890625 -2.472930908203125 -0.3668212890625 C -2.472930908203125 -0.3668212890625 -2.469512939453125 -0.386505126953125 -2.469512939453125 -0.386505126953125 C -2.469512939453125 -0.386505126953125 -2.477783203125 -0.32745361328125 -2.477783203125 -0.32745361328125 M -2.458892822265625 -0.447784423828125 C -2.458892822265625 -0.447784423828125 -2.45196533203125 -0.48773193359375 -2.45196533203125 -0.48773193359375 C -2.45196533203125 -0.48773193359375 -2.447509765625 -0.507568359375 -2.447509765625 -0.507568359375 C -2.447509765625 -0.507568359375 -2.458892822265625 -0.447784423828125 -2.458892822265625 -0.447784423828125 M -2.423309326171875 -0.61181640625 C -2.423309326171875 -0.61181640625 -2.434173583984375 -0.566986083984375 -2.434173583984375 -0.566986083984375 C -2.434173583984375 -0.566986083984375 -2.425079345703125 -0.607452392578125 -2.425079345703125 -0.607452392578125 C -2.425079345703125 -0.607452392578125 -2.4195556640625 -0.627471923828125 -2.4195556640625 -0.627471923828125 C -2.4195556640625 -0.627471923828125 -2.423309326171875 -0.61181640625 -2.423309326171875 -0.61181640625 M -2.392364501953125 -0.725677490234375 C -2.392364501953125 -0.725677490234375 -2.400146484375 -0.6976318359375 -2.400146484375 -0.6976318359375 C -2.400146484375 -0.6976318359375 -2.392364501953125 -0.7257080078125 -2.392364501953125 -0.7257080078125 C -2.392364501953125 -0.7257080078125 -2.385955810546875 -0.7451171875 -2.385955810546875 -0.7451171875 C -2.385955810546875 -0.7451171875 -2.392364501953125 -0.725677490234375 -2.392364501953125 -0.725677490234375 M -2.346649169921875 -0.86083984375 C -2.346649169921875 -0.86083984375 -2.353851318359375 -0.842193603515625 -2.353851318359375 -0.842193603515625 C -2.353851318359375 -0.842193603515625 -2.366424560546875 -0.80413818359375 -2.366424560546875 -0.80413818359375 C -2.366424560546875 -0.80413818359375 -2.366729736328125 -0.80328369140625 -2.366729736328125 -0.80328369140625 C -2.366729736328125 -0.80328369140625 -2.353851318359375 -0.84222412109375 -2.353851318359375 -0.84222412109375 C -2.353851318359375 -0.84222412109375 -2.346466064453125 -0.86138916015625 -2.346466064453125 -0.86138916015625 C -2.346466064453125 -0.86138916015625 -2.346649169921875 -0.86083984375 -2.346649169921875 -0.86083984375 M -2.301971435546875 -0.974090576171875 C -2.301971435546875 -0.974090576171875 -2.3096923828125 -0.9566650390625 -2.3096923828125 -0.9566650390625 C -2.3096923828125 -0.9566650390625 -2.323760986328125 -0.920166015625 -2.323760986328125 -0.920166015625 C -2.323760986328125 -0.920166015625 -2.324249267578125 -0.9189453125 -2.324249267578125 -0.9189453125 C -2.324249267578125 -0.9189453125 -2.3096923828125 -0.956695556640625 -2.3096923828125 -0.956695556640625 C -2.3096923828125 -0.956695556640625 -2.301849365234375 -0.97442626953125 -2.301849365234375 -0.97442626953125 C -2.301849365234375 -0.97442626953125 -2.301971435546875 -0.974090576171875 -2.301971435546875 -0.974090576171875 M -2.25115966796875 -1.086334228515625 C -2.25115966796875 -1.086334228515625 -2.259979248046875 -1.068817138671875 -2.259979248046875 -1.068817138671875 C -2.259979248046875 -1.068817138671875 -2.275482177734375 -1.03387451171875 -2.275482177734375 -1.03387451171875 C -2.275482177734375 -1.03387451171875 -2.259979248046875 -1.068878173828125 -2.259979248046875 -1.068878173828125 C -2.259979248046875 -1.068878173828125 -2.25079345703125 -1.087158203125 -2.25079345703125 -1.087158203125 C -2.25079345703125 -1.087158203125 -2.25115966796875 -1.086334228515625 -2.25115966796875 -1.086334228515625 M -2.194793701171875 -1.19610595703125 C -2.194793701171875 -1.19610595703125 -2.204803466796875 -1.178466796875 -2.204803466796875 -1.178466796875 C -2.204803466796875 -1.178466796875 -2.222808837890625 -1.142669677734375 -2.222808837890625 -1.142669677734375 C -2.222808837890625 -1.142669677734375 -2.2235107421875 -1.141326904296875 -2.2235107421875 -1.141326904296875 C -2.2235107421875 -1.141326904296875 -2.204803466796875 -1.178497314453125 -2.204803466796875 -1.178497314453125 C -2.204803466796875 -1.178497314453125 -2.19439697265625 -1.196868896484375 -2.19439697265625 -1.196868896484375 C -2.19439697265625 -1.196868896484375 -2.194793701171875 -1.19610595703125 -2.194793701171875 -1.19610595703125 M -2.1337890625 -1.301849365234375 C -2.1337890625 -1.301849365234375 -2.144317626953125 -1.28521728515625 -2.144317626953125 -1.28521728515625 C -2.144317626953125 -1.28521728515625 -2.16400146484375 -1.250457763671875 -2.16400146484375 -1.250457763671875 C -2.16400146484375 -1.250457763671875 -2.164703369140625 -1.249267578125 -2.164703369140625 -1.249267578125 C -2.164703369140625 -1.249267578125 -2.144317626953125 -1.285247802734375 -2.144317626953125 -1.285247802734375 C -2.144317626953125 -1.285247802734375 -2.133575439453125 -1.302215576171875 -2.133575439453125 -1.302215576171875 C -2.133575439453125 -1.302215576171875 -2.1337890625 -1.301849365234375 -2.1337890625 -1.301849365234375 M -2.067169189453125 -1.40521240234375 C -2.067169189453125 -1.40521240234375 -2.07867431640625 -1.388885498046875 -2.07867431640625 -1.388885498046875 C -2.07867431640625 -1.388885498046875 -2.0997314453125 -1.355621337890625 -2.0997314453125 -1.355621337890625 C -2.0997314453125 -1.355621337890625 -2.100433349609375 -1.35455322265625 -2.100433349609375 -1.35455322265625 C -2.100433349609375 -1.35455322265625 -2.07867431640625 -1.388916015625 -2.07867431640625 -1.388916015625 C -2.07867431640625 -1.388916015625 -2.066741943359375 -1.405853271484375 -2.066741943359375 -1.405853271484375 C -2.066741943359375 -1.405853271484375 -2.067169189453125 -1.40521240234375 -2.067169189453125 -1.40521240234375 M -1.838836669921875 -1.693084716796875 C -1.838836669921875 -1.693084716796875 -1.852386474609375 -1.678863525390625 -1.852386474609375 -1.678863525390625 C -1.852386474609375 -1.678863525390625 -1.878875732421875 -1.648162841796875 -1.878875732421875 -1.648162841796875 C -1.878875732421875 -1.648162841796875 -1.852386474609375 -1.67889404296875 -1.852386474609375 -1.67889404296875 C -1.852386474609375 -1.67889404296875 -1.83831787109375 -1.69366455078125 -1.83831787109375 -1.69366455078125 C -1.83831787109375 -1.69366455078125 -1.838836669921875 -1.693084716796875 -1.838836669921875 -1.693084716796875 M -1.75518798828125 -1.779693603515625 C -1.75518798828125 -1.779693603515625 -1.76776123046875 -1.767730712890625 -1.76776123046875 -1.767730712890625 C -1.76776123046875 -1.767730712890625 -1.794464111328125 -1.73968505859375 -1.794464111328125 -1.73968505859375 C -1.794464111328125 -1.73968505859375 -1.795501708984375 -1.7386474609375 -1.795501708984375 -1.7386474609375 C -1.795501708984375 -1.7386474609375 -1.76776123046875 -1.76776123046875 -1.76776123046875 -1.76776123046875 C -1.76776123046875 -1.76776123046875 -1.754486083984375 -1.7803955078125 -1.754486083984375 -1.7803955078125 C -1.754486083984375 -1.7803955078125 -1.75518798828125 -1.779693603515625 -1.75518798828125 -1.779693603515625"></path></g></g><g fill="rgb(204,204,204)" stroke="none"><g transform="matrix(0.8660254037844387,-0.49999999999999994,0.49999999999999994,0.8660254037844387,3.258623843475519,3.876937660898275)"><path class="fill" d="M -0.1901702880859375 -2.291015625 C -0.1901702880859375 -2.291015625 -0.0841217041015625 -2.282928466796875 -0.0841217041015625 -2.282928466796875 C -0.0841217041015625 -2.282928466796875 0.0203704833984375 -2.2696533203125 0.0203704833984375 -2.2696533203125 C 0.0203704833984375 -2.2696533203125 0.1231842041015625 -2.251312255859375 0.1231842041015625 -2.251312255859375 C 0.1231842041015625 -2.251312255859375 0.2241973876953125 -2.227996826171875 0.2241973876953125 -2.227996826171875 C 0.2241973876953125 -2.227996826171875 0.3232879638671875 -2.199859619140625 0.3232879638671875 -2.199859619140625 C 0.3232879638671875 -2.199859619140625 0.4203033447265625 -2.167022705078125 0.4203033447265625 -2.167022705078125 C 0.4203033447265625 -2.167022705078125 0.5151214599609375 -2.129638671875 0.5151214599609375 -2.129638671875 C 0.5151214599609375 -2.129638671875 0.6076202392578125 -2.08782958984375 0.6076202392578125 -2.08782958984375 C 0.6076202392578125 -2.08782958984375 0.6976470947265625 -2.041717529296875 0.6976470947265625 -2.041717529296875 C 0.6976470947265625 -2.041717529296875 0.7850799560546875 -1.991424560546875 0.7850799560546875 -1.991424560546875 C 0.7850799560546875 -1.991424560546875 0.8697967529296875 -1.9371337890625 0.8697967529296875 -1.9371337890625 C 0.8697967529296875 -1.9371337890625 0.9516754150390625 -1.87890625 0.9516754150390625 -1.87890625 C 0.9516754150390625 -1.87890625 1.0305328369140625 -1.816925048828125 1.0305328369140625 -1.816925048828125 C 1.0305328369140625 -1.816925048828125 1.1063079833984375 -1.751312255859375 1.1063079833984375 -1.751312255859375 C 1.1063079833984375 -1.751312255859375 1.1788177490234375 -1.682159423828125 1.1788177490234375 -1.682159423828125 C 1.1788177490234375 -1.682159423828125 1.2479400634765625 -1.609649658203125 1.2479400634765625 -1.609649658203125 C 1.2479400634765625 -1.609649658203125 1.3135833740234375 -1.533905029296875 1.3135833740234375 -1.533905029296875 C 1.3135833740234375 -1.533905029296875 1.3755645751953125 -1.45501708984375 1.3755645751953125 -1.45501708984375 C 1.3755645751953125 -1.45501708984375 1.4337615966796875 -1.373138427734375 1.4337615966796875 -1.373138427734375 C 1.4337615966796875 -1.373138427734375 1.4880828857421875 -1.2884521484375 1.4880828857421875 -1.2884521484375 C 1.4880828857421875 -1.2884521484375 1.5383453369140625 -1.20098876953125 1.5383453369140625 -1.20098876953125 C 1.5383453369140625 -1.20098876953125 1.5844573974609375 -1.1109619140625 1.5844573974609375 -1.1109619140625 C 1.5844573974609375 -1.1109619140625 1.6262969970703125 -1.01849365234375 1.6262969970703125 -1.01849365234375 C 1.6262969970703125 -1.01849365234375 1.6636810302734375 -0.923675537109375 1.6636810302734375 -0.923675537109375 C 1.6636810302734375 -0.923675537109375 1.6964874267578125 -0.82666015625 1.6964874267578125 -0.82666015625 C 1.6964874267578125 -0.82666015625 1.7246246337890625 -0.727569580078125 1.7246246337890625 -0.727569580078125 C 1.7246246337890625 -0.727569580078125 1.7479400634765625 -0.626556396484375 1.7479400634765625 -0.626556396484375 C 1.7479400634765625 -0.626556396484375 1.7663116455078125 -0.523712158203125 1.7663116455078125 -0.523712158203125 C 1.7663116455078125 -0.523712158203125 1.7795867919921875 -0.419219970703125 1.7795867919921875 -0.419219970703125 C 1.7795867919921875 -0.419219970703125 1.7876434326171875 -0.313201904296875 1.7876434326171875 -0.313201904296875 C 1.7876434326171875 -0.313201904296875 1.7903594970703125 -0.20574951171875 1.7903594970703125 -0.20574951171875 C 1.7903594970703125 -0.20574951171875 -0.9953460693359375 -0.20574951171875 -0.9953460693359375 -0.20574951171875 C -0.9953460693359375 -0.20574951171875 -0.9926300048828125 -0.098297119140625 -0.9926300048828125 -0.098297119140625 C -0.9926300048828125 -0.098297119140625 -0.9845733642578125 0.007720947265625 -0.9845733642578125 0.007720947265625 C -0.9845733642578125 0.007720947265625 -0.9712982177734375 0.112213134765625 -0.9712982177734375 0.112213134765625 C -0.9712982177734375 0.112213134765625 -0.9529266357421875 0.215057373046875 -0.9529266357421875 0.215057373046875 C -0.9529266357421875 0.215057373046875 -0.9296112060546875 0.316070556640625 -0.9296112060546875 0.316070556640625 C -0.9296112060546875 0.316070556640625 -0.9014739990234375 0.4151611328125 -0.9014739990234375 0.4151611328125 C -0.9014739990234375 0.4151611328125 -0.8686676025390625 0.512176513671875 -0.8686676025390625 0.512176513671875 C -0.8686676025390625 0.512176513671875 -0.8312835693359375 0.60699462890625 -0.8312835693359375 0.60699462890625 C -0.8312835693359375 0.60699462890625 -0.7894439697265625 0.699462890625 -0.7894439697265625 0.699462890625 C -0.7894439697265625 0.699462890625 -0.7433319091796875 0.78948974609375 -0.7433319091796875 0.78948974609375 C -0.7433319091796875 0.78948974609375 -0.6930694580078125 0.876953125 -0.6930694580078125 0.876953125 C -0.6930694580078125 0.876953125 -0.6387481689453125 0.961639404296875 -0.6387481689453125 0.961639404296875 C -0.6387481689453125 0.961639404296875 -0.5805511474609375 1.04351806640625 -0.5805511474609375 1.04351806640625 C -0.5805511474609375 1.04351806640625 -0.5185699462890625 1.122406005859375 -0.5185699462890625 1.122406005859375 C -0.5185699462890625 1.122406005859375 -0.4529266357421875 1.198150634765625 -0.4529266357421875 1.198150634765625 C -0.4529266357421875 1.198150634765625 -0.3838043212890625 1.270660400390625 -0.3838043212890625 1.270660400390625 C -0.3838043212890625 1.270660400390625 -0.3112945556640625 1.339813232421875 -0.3112945556640625 1.339813232421875 C -0.3112945556640625 1.339813232421875 -0.2355194091796875 1.405426025390625 -0.2355194091796875 1.405426025390625 C -0.2355194091796875 1.405426025390625 -0.1566619873046875 1.4674072265625 -0.1566619873046875 1.4674072265625 C -0.1566619873046875 1.4674072265625 -0.0747833251953125 1.525634765625 -0.0747833251953125 1.525634765625 C -0.0747833251953125 1.525634765625 0.0099334716796875 1.579925537109375 0.0099334716796875 1.579925537109375 C 0.0099334716796875 1.579925537109375 0.0973663330078125 1.630218505859375 0.0973663330078125 1.630218505859375 C 0.0973663330078125 1.630218505859375 0.1873931884765625 1.67633056640625 0.1873931884765625 1.67633056640625 C 0.1873931884765625 1.67633056640625 0.2798919677734375 1.7181396484375 0.2798919677734375 1.7181396484375 C 0.2798919677734375 1.7181396484375 0.3747100830078125 1.755523681640625 0.3747100830078125 1.755523681640625 C 0.3747100830078125 1.755523681640625 0.4717254638671875 1.788360595703125 0.4717254638671875 1.788360595703125 C 0.4717254638671875 1.788360595703125 0.5708160400390625 1.816497802734375 0.5708160400390625 1.816497802734375 C 0.5708160400390625 1.816497802734375 0.6718292236328125 1.839813232421875 0.6718292236328125 1.839813232421875 C 0.6718292236328125 1.839813232421875 0.7746429443359375 1.858154296875 0.7746429443359375 1.858154296875 C 0.7746429443359375 1.858154296875 0.8791351318359375 1.871429443359375 0.8791351318359375 1.871429443359375 C 0.8791351318359375 1.871429443359375 0.9851837158203125 1.8795166015625 0.9851837158203125 1.8795166015625 C 0.9851837158203125 1.8795166015625 1.0926055908203125 1.882232666015625 1.0926055908203125 1.882232666015625 C 1.0926055908203125 1.882232666015625 1.2000579833984375 1.8795166015625 1.2000579833984375 1.8795166015625 C 1.2000579833984375 1.8795166015625 1.3061065673828125 1.871429443359375 1.3061065673828125 1.871429443359375 C 1.3061065673828125 1.871429443359375 1.4105987548828125 1.858154296875 1.4105987548828125 1.858154296875 C 1.4105987548828125 1.858154296875 1.5134124755859375 1.839813232421875 1.5134124755859375 1.839813232421875 C 1.5134124755859375 1.839813232421875 1.6144256591796875 1.816497802734375 1.6144256591796875 1.816497802734375 C 1.6144256591796875 1.816497802734375 1.7135162353515625 1.788360595703125 1.7135162353515625 1.788360595703125 C 1.7135162353515625 1.788360595703125 1.8105316162109375 1.755523681640625 1.8105316162109375 1.755523681640625 C 1.8105316162109375 1.755523681640625 1.9053497314453125 1.7181396484375 1.9053497314453125 1.7181396484375 C 1.9053497314453125 1.7181396484375 1.9978485107421875 1.67633056640625 1.9978485107421875 1.67633056640625 C 1.9978485107421875 1.67633056640625 2.0878753662109375 1.630218505859375 2.0878753662109375 1.630218505859375 C 2.0878753662109375 1.630218505859375 2.1021575927734375 1.62200927734375 2.1021575927734375 1.62200927734375 C 2.1021575927734375 1.62200927734375 2.0612335205078125 1.65972900390625 2.0612335205078125 1.65972900390625 C 2.0612335205078125 1.65972900390625 2.0191802978515625 1.696136474609375 2.0191802978515625 1.696136474609375 C 2.0191802978515625 1.696136474609375 1.9670257568359375 1.7396240234375 1.9670257568359375 1.7396240234375 C 1.9670257568359375 1.7396240234375 1.9276275634765625 1.770599365234375 1.9276275634765625 1.770599365234375 C 1.9276275634765625 1.770599365234375 1.8688812255859375 1.81494140625 1.8688812255859375 1.81494140625 C 1.8688812255859375 1.81494140625 1.8325958251953125 1.84075927734375 1.8325958251953125 1.84075927734375 C 1.8325958251953125 1.84075927734375 1.7649383544921875 1.88671875 1.7649383544921875 1.88671875 C 1.7649383544921875 1.88671875 1.7360992431640625 1.90521240234375 1.7360992431640625 1.90521240234375 C 1.7360992431640625 1.90521240234375 1.6576690673828125 1.953125 1.6576690673828125 1.953125 C 1.6576690673828125 1.953125 1.6356048583984375 1.965789794921875 1.6356048583984375 1.965789794921875 C 1.6356048583984375 1.965789794921875 1.5460968017578125 2.01458740234375 1.5460968017578125 2.01458740234375 C 1.5460968017578125 2.01458740234375 1.5325469970703125 2.021514892578125 1.5325469970703125 2.021514892578125 C 1.5325469970703125 2.021514892578125 1.4346771240234375 2.068817138671875 1.4346771240234375 2.068817138671875 C 1.4346771240234375 2.068817138671875 1.4232635498046875 2.073974609375 1.4232635498046875 2.073974609375 C 1.4232635498046875 2.073974609375 1.3194732666015625 2.117950439453125 1.3194732666015625 2.117950439453125 C 1.3194732666015625 2.117950439453125 1.3128814697265625 2.12054443359375 1.3128814697265625 2.12054443359375 C 1.3128814697265625 2.12054443359375 1.2042999267578125 2.160430908203125 1.2042999267578125 2.160430908203125 C 1.2042999267578125 2.160430908203125 1.1975860595703125 2.162689208984375 1.1975860595703125 2.162689208984375 C 1.1975860595703125 2.162689208984375 1.0881500244140625 2.19683837890625 1.0881500244140625 2.19683837890625 C 1.0881500244140625 2.19683837890625 1.0792083740234375 2.19940185546875 1.0792083740234375 2.19940185546875 C 1.0792083740234375 2.19940185546875 0.9727325439453125 2.22698974609375 0.9727325439453125 2.22698974609375 C 0.9727325439453125 2.22698974609375 0.9561309814453125 2.2308349609375 0.9561309814453125 2.2308349609375 C 0.9561309814453125 2.2308349609375 0.8563995361328125 2.251495361328125 0.8563995361328125 2.251495361328125 C 0.8563995361328125 2.251495361328125 0.8299407958984375 2.2562255859375 0.8299407958984375 2.2562255859375 C 0.8299407958984375 2.2562255859375 0.7406768798828125 2.27020263671875 0.7406768798828125 2.27020263671875 C 0.7406768798828125 2.27020263671875 0.6991119384765625 2.2755126953125 0.6991119384765625 2.2755126953125 C 0.6991119384765625 2.2755126953125 0.6229095458984375 2.28363037109375 0.6229095458984375 2.28363037109375 C 0.6229095458984375 2.28363037109375 0.5670013427734375 2.287872314453125 0.5670013427734375 2.287872314453125 C 0.5670013427734375 2.287872314453125 0.5022735595703125 2.291595458984375 0.5022735595703125 2.291595458984375 C 0.5022735595703125 2.291595458984375 0.4365997314453125 2.293243408203125 0.4365997314453125 2.293243408203125 C 0.4365997314453125 2.293243408203125 0.3775177001953125 2.293731689453125 0.3775177001953125 2.293731689453125 C 0.3775177001953125 2.293731689453125 0.3118438720703125 2.292083740234375 0.3118438720703125 2.292083740234375 C 0.3118438720703125 2.292083740234375 0.2495269775390625 2.289520263671875 0.2495269775390625 2.289520263671875 C 0.2495269775390625 2.289520263671875 0.1951141357421875 2.285369873046875 0.1951141357421875 2.285369873046875 C 0.1951141357421875 2.285369873046875 0.1219635009765625 2.27880859375 0.1219635009765625 2.27880859375 C 0.1219635009765625 2.27880859375 0.0828094482421875 2.273834228515625 0.0828094482421875 2.273834228515625 C 0.0828094482421875 2.273834228515625 -0.0058135986328125 2.26141357421875 -0.0058135986328125 2.26141357421875 C -0.0058135986328125 2.26141357421875 -0.0223541259765625 2.258453369140625 -0.0223541259765625 2.258453369140625 C -0.0223541259765625 2.258453369140625 -0.1302642822265625 2.2379150390625 -0.1302642822265625 2.2379150390625 C -0.1302642822265625 2.2379150390625 -0.2495269775390625 2.20904541015625 -0.2495269775390625 2.20904541015625 C -0.2495269775390625 2.20904541015625 -0.3672637939453125 2.174407958984375 -0.3672637939453125 2.174407958984375 C -0.3672637939453125 2.174407958984375 -0.4831390380859375 2.134002685546875 -0.4831390380859375 2.134002685546875 C -0.4831390380859375 2.134002685546875 -0.5968780517578125 2.0880126953125 -0.5968780517578125 2.0880126953125 C -0.5968780517578125 2.0880126953125 -0.7082061767578125 2.03643798828125 -0.7082061767578125 2.03643798828125 C -0.7082061767578125 2.03643798828125 -0.8162384033203125 1.97979736328125 -0.8162384033203125 1.97979736328125 C -0.8162384033203125 1.97979736328125 -0.8195343017578125 1.9779052734375 -0.8195343017578125 1.9779052734375 C -0.8195343017578125 1.9779052734375 -0.9182281494140625 1.919891357421875 -0.9182281494140625 1.919891357421875 C -0.9182281494140625 1.919891357421875 -0.9379425048828125 1.9072265625 -0.9379425048828125 1.9072265625 C -0.9379425048828125 1.9072265625 -1.0177764892578125 1.854827880859375 -1.0177764892578125 1.854827880859375 C -1.0177764892578125 1.854827880859375 -1.0478668212890625 1.83343505859375 -1.0478668212890625 1.83343505859375 C -1.0478668212890625 1.83343505859375 -1.1143646240234375 1.784942626953125 -1.1143646240234375 1.784942626953125 C -1.1143646240234375 1.784942626953125 -1.1509246826171875 1.7562255859375 -1.1509246826171875 1.7562255859375 C -1.1509246826171875 1.7562255859375 -1.2079620361328125 1.710174560546875 -1.2079620361328125 1.710174560546875 C -1.2079620361328125 1.710174560546875 -1.2478790283203125 1.67559814453125 -1.2478790283203125 1.67559814453125 C -1.2478790283203125 1.67559814453125 -1.2976226806640625 1.631256103515625 -1.2976226806640625 1.631256103515625 C -1.2976226806640625 1.631256103515625 -1.3401641845703125 1.5906982421875 -1.3401641845703125 1.5906982421875 C -1.3401641845703125 1.5906982421875 -1.3844451904296875 1.547119140625 -1.3844451904296875 1.547119140625 C -1.3844451904296875 1.547119140625 -1.4246368408203125 1.504974365234375 -1.4246368408203125 1.504974365234375 C -1.4246368408203125 1.504974365234375 -1.4679718017578125 1.457977294921875 -1.4679718017578125 1.457977294921875 C -1.4679718017578125 1.457977294921875 -1.5043792724609375 1.415924072265625 -1.5043792724609375 1.415924072265625 C -1.5043792724609375 1.415924072265625 -1.5478668212890625 1.36376953125 -1.5478668212890625 1.36376953125 C -1.5478668212890625 1.36376953125 -1.5788421630859375 1.324371337890625 -1.5788421630859375 1.324371337890625 C -1.5788421630859375 1.324371337890625 -1.6231842041015625 1.265625 -1.6231842041015625 1.265625 C -1.6231842041015625 1.265625 -1.6490020751953125 1.229339599609375 -1.6490020751953125 1.229339599609375 C -1.6490020751953125 1.229339599609375 -1.6949615478515625 1.16168212890625 -1.6949615478515625 1.16168212890625 C -1.6949615478515625 1.16168212890625 -1.7134552001953125 1.132843017578125 -1.7134552001953125 1.132843017578125 C -1.7134552001953125 1.132843017578125 -1.7613677978515625 1.054412841796875 -1.7613677978515625 1.054412841796875 C -1.7613677978515625 1.054412841796875 -1.7740325927734375 1.0323486328125 -1.7740325927734375 1.0323486328125 C -1.7740325927734375 1.0323486328125 -1.8228302001953125 0.942840576171875 -1.8228302001953125 0.942840576171875 C -1.8228302001953125 0.942840576171875 -1.8297576904296875 0.929290771484375 -1.8297576904296875 0.929290771484375 C -1.8297576904296875 0.929290771484375 -1.8770599365234375 0.8314208984375 -1.8770599365234375 0.8314208984375 C -1.8770599365234375 0.8314208984375 -1.8822174072265625 0.82000732421875 -1.8822174072265625 0.82000732421875 C -1.8822174072265625 0.82000732421875 -1.9261932373046875 0.716217041015625 -1.9261932373046875 0.716217041015625 C -1.9261932373046875 0.716217041015625 -1.9287872314453125 0.709625244140625 -1.9287872314453125 0.709625244140625 C -1.9287872314453125 0.709625244140625 -1.9686737060546875 0.601043701171875 -1.9686737060546875 0.601043701171875 C -1.9686737060546875 0.601043701171875 -1.9709320068359375 0.594329833984375 -1.9709320068359375 0.594329833984375 C -1.9709320068359375 0.594329833984375 -2.0050811767578125 0.484893798828125 -2.0050811767578125 0.484893798828125 C -2.0050811767578125 0.484893798828125 -2.0076446533203125 0.4759521484375 -2.0076446533203125 0.4759521484375 C -2.0076446533203125 0.4759521484375 -2.0352325439453125 0.369476318359375 -2.0352325439453125 0.369476318359375 C -2.0352325439453125 0.369476318359375 -2.0390777587890625 0.352874755859375 -2.0390777587890625 0.352874755859375 C -2.0390777587890625 0.352874755859375 -2.0597381591796875 0.253143310546875 -2.0597381591796875 0.253143310546875 C -2.0597381591796875 0.253143310546875 -2.0644683837890625 0.2266845703125 -2.0644683837890625 0.2266845703125 C -2.0644683837890625 0.2266845703125 -2.0785064697265625 0.137115478515625 -2.0785064697265625 0.137115478515625 C -2.0785064697265625 0.137115478515625 -2.0837554931640625 0.095855712890625 -2.0837554931640625 0.095855712890625 C -2.0837554931640625 0.095855712890625 -2.0918731689453125 0.0196533203125 -2.0918731689453125 0.0196533203125 C -2.0918731689453125 0.0196533203125 -2.0961151123046875 -0.0362548828125 -2.0961151123046875 -0.0362548828125 C -2.0961151123046875 -0.0362548828125 -2.0998382568359375 -0.100982666015625 -2.0998382568359375 -0.100982666015625 C -2.0998382568359375 -0.100982666015625 -2.1014862060546875 -0.166656494140625 -2.1014862060546875 -0.166656494140625 C -2.1014862060546875 -0.166656494140625 -2.1021575927734375 -0.24664306640625 -2.1021575927734375 -0.24664306640625 C -2.1021575927734375 -0.24664306640625 -2.0971221923828125 -0.3692626953125 -2.0971221923828125 -0.3692626953125 C -2.0971221923828125 -0.3692626953125 -2.0861358642578125 -0.491485595703125 -2.0861358642578125 -0.491485595703125 C -2.0861358642578125 -0.491485595703125 -2.0691070556640625 -0.61297607421875 -2.0691070556640625 -0.61297607421875 C -2.0691070556640625 -0.61297607421875 -2.0461578369140625 -0.7335205078125 -2.0461578369140625 -0.7335205078125 C -2.0461578369140625 -0.7335205078125 -2.0258026123046875 -0.81756591796875 -2.0258026123046875 -0.81756591796875 C -2.0258026123046875 -0.81756591796875 0.5135955810546875 -0.81756591796875 0.5135955810546875 -0.81756591796875 C 0.5135955810546875 -0.81756591796875 0.5118865966796875 -0.88446044921875 0.5118865966796875 -0.88446044921875 C 0.5118865966796875 -0.88446044921875 0.5068511962890625 -0.950469970703125 0.5068511962890625 -0.950469970703125 C 0.5068511962890625 -0.950469970703125 0.4986114501953125 -1.015533447265625 0.4986114501953125 -1.015533447265625 C 0.4986114501953125 -1.015533447265625 0.4871673583984375 -1.079559326171875 0.4871673583984375 -1.079559326171875 C 0.4871673583984375 -1.079559326171875 0.4726409912109375 -1.1424560546875 0.4726409912109375 -1.1424560546875 C 0.4726409912109375 -1.1424560546875 0.4551239013671875 -1.204132080078125 0.4551239013671875 -1.204132080078125 C 0.4551239013671875 -1.204132080078125 0.4346771240234375 -1.264556884765625 0.4346771240234375 -1.264556884765625 C 0.4346771240234375 -1.264556884765625 0.4114227294921875 -1.323577880859375 0.4114227294921875 -1.323577880859375 C 0.4114227294921875 -1.323577880859375 0.3853912353515625 -1.381195068359375 0.3853912353515625 -1.381195068359375 C 0.3853912353515625 -1.381195068359375 0.3566741943359375 -1.437225341796875 0.3566741943359375 -1.437225341796875 C 0.3566741943359375 -1.437225341796875 0.3253936767578125 -1.49163818359375 0.3253936767578125 -1.49163818359375 C 0.3253936767578125 -1.49163818359375 0.2915496826171875 -1.544403076171875 0.2915496826171875 -1.544403076171875 C 0.2915496826171875 -1.544403076171875 0.2553253173828125 -1.59539794921875 0.2553253173828125 -1.59539794921875 C 0.2553253173828125 -1.59539794921875 0.2167205810546875 -1.64447021484375 0.2167205810546875 -1.64447021484375 C 0.2167205810546875 -1.64447021484375 0.1758880615234375 -1.691650390625 0.1758880615234375 -1.691650390625 C 0.1758880615234375 -1.691650390625 0.1328277587890625 -1.73681640625 0.1328277587890625 -1.73681640625 C 0.1328277587890625 -1.73681640625 0.0876617431640625 -1.77984619140625 0.0876617431640625 -1.77984619140625 C 0.0876617431640625 -1.77984619140625 0.0404815673828125 -1.820709228515625 0.0404815673828125 -1.820709228515625 C 0.0404815673828125 -1.820709228515625 -0.0086212158203125 -1.859283447265625 -0.0086212158203125 -1.859283447265625 C -0.0086212158203125 -1.859283447265625 -0.0595855712890625 -1.895538330078125 -0.0595855712890625 -1.895538330078125 C -0.0595855712890625 -1.895538330078125 -0.1123199462890625 -1.929351806640625 -0.1123199462890625 -1.929351806640625 C -0.1123199462890625 -1.929351806640625 -0.1667633056640625 -1.960662841796875 -0.1667633056640625 -1.960662841796875 C -0.1667633056640625 -1.960662841796875 -0.2228240966796875 -1.9893798828125 -0.2228240966796875 -1.9893798828125 C -0.2228240966796875 -1.9893798828125 -0.2804107666015625 -2.015411376953125 -0.2804107666015625 -2.015411376953125 C -0.2804107666015625 -2.015411376953125 -0.3394622802734375 -2.038665771484375 -0.3394622802734375 -2.038665771484375 C -0.3394622802734375 -2.038665771484375 -0.3998565673828125 -2.05914306640625 -0.3998565673828125 -2.05914306640625 C -0.3998565673828125 -2.05914306640625 -0.4615325927734375 -2.07666015625 -0.4615325927734375 -2.07666015625 C -0.4615325927734375 -2.07666015625 -0.5244293212890625 -2.091156005859375 -0.5244293212890625 -2.091156005859375 C -0.5244293212890625 -2.091156005859375 -0.5884552001953125 -2.102569580078125 -0.5884552001953125 -2.102569580078125 C -0.5884552001953125 -2.102569580078125 -0.6534881591796875 -2.110870361328125 -0.6534881591796875 -2.110870361328125 C -0.6534881591796875 -2.110870361328125 -0.7195281982421875 -2.1158447265625 -0.7195281982421875 -2.1158447265625 C -0.7195281982421875 -2.1158447265625 -0.7864227294921875 -2.117584228515625 -0.7864227294921875 -2.117584228515625 C -0.7864227294921875 -2.117584228515625 -0.8533172607421875 -2.115875244140625 -0.8533172607421875 -2.115875244140625 C -0.8533172607421875 -2.115875244140625 -0.9193572998046875 -2.11083984375 -0.9193572998046875 -2.11083984375 C -0.9193572998046875 -2.11083984375 -0.9843902587890625 -2.10260009765625 -0.9843902587890625 -2.10260009765625 C -0.9843902587890625 -2.10260009765625 -1.0484466552734375 -2.091156005859375 -1.0484466552734375 -2.091156005859375 C -1.0484466552734375 -2.091156005859375 -1.1113433837890625 -2.076629638671875 -1.1113433837890625 -2.076629638671875 C -1.1113433837890625 -2.076629638671875 -1.1730194091796875 -2.05914306640625 -1.1730194091796875 -2.05914306640625 C -1.1730194091796875 -2.05914306640625 -1.2334136962890625 -2.038665771484375 -1.2334136962890625 -2.038665771484375 C -1.2334136962890625 -2.038665771484375 -1.2924652099609375 -2.015411376953125 -1.2924652099609375 -2.015411376953125 C -1.2924652099609375 -2.015411376953125 -1.3500213623046875 -1.9893798828125 -1.3500213623046875 -1.9893798828125 C -1.3500213623046875 -1.9893798828125 -1.3574981689453125 -1.98553466796875 -1.3574981689453125 -1.98553466796875 C -1.3574981689453125 -1.98553466796875 -1.3411102294921875 -2.002197265625 -1.3411102294921875 -2.002197265625 C -1.3411102294921875 -2.002197265625 -1.3071441650390625 -2.03350830078125 -1.3071441650390625 -2.03350830078125 C -1.3071441650390625 -2.03350830078125 -1.2928619384765625 -2.041717529296875 -1.2928619384765625 -2.041717529296875 C -1.2928619384765625 -2.041717529296875 -1.2028350830078125 -2.08782958984375 -1.2028350830078125 -2.08782958984375 C -1.2028350830078125 -2.08782958984375 -1.1103363037109375 -2.129638671875 -1.1103363037109375 -2.129638671875 C -1.1103363037109375 -2.129638671875 -1.0155181884765625 -2.167022705078125 -1.0155181884765625 -2.167022705078125 C -1.0155181884765625 -2.167022705078125 -0.9185028076171875 -2.199859619140625 -0.9185028076171875 -2.199859619140625 C -0.9185028076171875 -2.199859619140625 -0.8194122314453125 -2.227996826171875 -0.8194122314453125 -2.227996826171875 C -0.8194122314453125 -2.227996826171875 -0.7183990478515625 -2.251312255859375 -0.7183990478515625 -2.251312255859375 C -0.7183990478515625 -2.251312255859375 -0.6155853271484375 -2.2696533203125 -0.6155853271484375 -2.2696533203125 C -0.6155853271484375 -2.2696533203125 -0.5110931396484375 -2.282928466796875 -0.5110931396484375 -2.282928466796875 C -0.5110931396484375 -2.282928466796875 -0.4050445556640625 -2.291015625 -0.4050445556640625 -2.291015625 C -0.4050445556640625 -2.291015625 -0.2975921630859375 -2.293731689453125 -0.2975921630859375 -2.293731689453125 C -0.2975921630859375 -2.293731689453125 -0.1901702880859375 -2.291015625 -0.1901702880859375 -2.291015625 M -2.0218658447265625 -0.83392333984375 C -2.0218658447265625 -0.83392333984375 -2.0172882080078125 -0.852783203125 -2.0172882080078125 -0.852783203125 C -2.0172882080078125 -0.852783203125 -2.0061492919921875 -0.890655517578125 -2.0061492919921875 -0.890655517578125 C -2.0061492919921875 -0.890655517578125 -2.0218658447265625 -0.83392333984375 -2.0218658447265625 -0.83392333984375 M -1.9884490966796875 -0.95086669921875 C -1.9884490966796875 -0.95086669921875 -1.9826507568359375 -0.97052001953125 -1.9826507568359375 -0.97052001953125 C -1.9826507568359375 -0.97052001953125 -1.9689178466796875 -1.0098876953125 -1.9689178466796875 -1.0098876953125 C -1.9689178466796875 -1.0098876953125 -1.9884490966796875 -0.95086669921875 -1.9884490966796875 -0.95086669921875 M -1.9491424560546875 -1.06658935546875 C -1.9491424560546875 -1.06658935546875 -1.9422454833984375 -1.086395263671875 -1.9422454833984375 -1.086395263671875 C -1.9422454833984375 -1.086395263671875 -1.9262542724609375 -1.12591552734375 -1.9262542724609375 -1.12591552734375 C -1.9262542724609375 -1.12591552734375 -1.9491424560546875 -1.06658935546875 -1.9491424560546875 -1.06658935546875 M -1.9044647216796875 -1.179840087890625 C -1.9044647216796875 -1.179840087890625 -1.8962554931640625 -1.20013427734375 -1.8962554931640625 -1.20013427734375 C -1.8962554931640625 -1.20013427734375 -1.8779754638671875 -1.2396240234375 -1.8779754638671875 -1.2396240234375 C -1.8779754638671875 -1.2396240234375 -1.9044647216796875 -1.179840087890625 -1.9044647216796875 -1.179840087890625 M -1.8536529541015625 -1.292083740234375 C -1.8536529541015625 -1.292083740234375 -1.8446807861328125 -1.31146240234375 -1.8446807861328125 -1.31146240234375 C -1.8446807861328125 -1.31146240234375 -1.8253021240234375 -1.348419189453125 -1.8253021240234375 -1.348419189453125 C -1.8253021240234375 -1.348419189453125 -1.8536529541015625 -1.292083740234375 -1.8536529541015625 -1.292083740234375 M -1.7972869873046875 -1.40185546875 C -1.7972869873046875 -1.40185546875 -1.7877044677734375 -1.420166015625 -1.7877044677734375 -1.420166015625 C -1.7877044677734375 -1.420166015625 -1.7664947509765625 -1.456207275390625 -1.7664947509765625 -1.456207275390625 C -1.7664947509765625 -1.456207275390625 -1.7972869873046875 -1.40185546875 -1.7972869873046875 -1.40185546875 M -1.7362823486328125 -1.507598876953125 C -1.7362823486328125 -1.507598876953125 -1.7255096435546875 -1.525909423828125 -1.7255096435546875 -1.525909423828125 C -1.7255096435546875 -1.525909423828125 -1.7022247314453125 -1.561370849609375 -1.7022247314453125 -1.561370849609375 C -1.7022247314453125 -1.561370849609375 -1.7362823486328125 -1.507598876953125 -1.7362823486328125 -1.507598876953125 M -1.6696624755859375 -1.6109619140625 C -1.6696624755859375 -1.6109619140625 -1.6581573486328125 -1.628509521484375 -1.6581573486328125 -1.628509521484375 C -1.6581573486328125 -1.628509521484375 -1.6343231201171875 -1.66119384765625 -1.6343231201171875 -1.66119384765625 C -1.6343231201171875 -1.66119384765625 -1.6696624755859375 -1.6109619140625 -1.6696624755859375 -1.6109619140625 M -1.5975799560546875 -1.71160888671875 C -1.5975799560546875 -1.71160888671875 -1.5858612060546875 -1.7276611328125 -1.5858612060546875 -1.7276611328125 C -1.5858612060546875 -1.7276611328125 -1.5606842041015625 -1.75885009765625 -1.5606842041015625 -1.75885009765625 C -1.5606842041015625 -1.75885009765625 -1.5975799560546875 -1.71160888671875 -1.5975799560546875 -1.71160888671875 M -1.5214996337890625 -1.807403564453125 C -1.5214996337890625 -1.807403564453125 -1.5088043212890625 -1.8231201171875 -1.5088043212890625 -1.8231201171875 C -1.5088043212890625 -1.8231201171875 -1.4813690185546875 -1.853912353515625 -1.4813690185546875 -1.853912353515625 C -1.4813690185546875 -1.853912353515625 -1.5214996337890625 -1.807403564453125 -1.5214996337890625 -1.807403564453125 M -1.4413299560546875 -1.898834228515625 C -1.4413299560546875 -1.898834228515625 -1.4271697998046875 -1.91473388671875 -1.4271697998046875 -1.91473388671875 C -1.4271697998046875 -1.91473388671875 -1.3969573974609375 -1.9454345703125 -1.3969573974609375 -1.9454345703125 C -1.3969573974609375 -1.9454345703125 -1.4413299560546875 -1.898834228515625 -1.4413299560546875 -1.898834228515625"></path></g></g></g>
        </g>
      </svg>